<?xml version="1.0" encoding="utf-8"?>
<!-- Generator: Adobe Illustrator 25.4.1, SVG Export Plug-In . SVG Version: 6.00 Build 0)  -->
<svg version="1.1" id="Calque_1" xmlns="http://www.w3.org/2000/svg" xmlns:xlink="http://www.w3.org/1999/xlink" x="0px" y="0px"
	 viewBox="0 0 31.7 29.6" style="enable-background:new 0 0 31.7 29.6;" xml:space="preserve">
<style type="text/css">
	.st0{fill:#208EBA;}
	.st1{fill:#208EBA;stroke:#000000;stroke-width:0.5084;stroke-miterlimit:10;}
	.st2{fill:none;stroke:#000000;stroke-width:0.5084;stroke-miterlimit:10;}
	.st3{fill:#5643F2;stroke:#000000;stroke-width:0.5084;stroke-miterlimit:10;}
	.st4{fill:url(#SVGID_1_);stroke:#000000;stroke-width:0.5084;stroke-miterlimit:10;}
	
		.st5{fill:url(#SVGID_00000075156414213801750110000000021482868330076809_);stroke:#000000;stroke-width:0.5084;stroke-miterlimit:10;}
	
		.st6{fill:url(#SVGID_00000170259628669697358600000002510987702238145162_);stroke:#000000;stroke-width:0.5084;stroke-miterlimit:10;}
	.st7{fill:#FFFFFF;}
</style>
<path class="st0" d="M14.6,1l3.9,0.1c-0.2,0-0.4,0-0.6,0L14,1C14.2,1,14.4,1,14.6,1z"/>
<path class="st1" d="M17.8,1.2L14,1c0.2,0,0.4,0,0.6,0l3.9,0.1C18.2,1.2,18,1.2,17.8,1.2z"/>
<path class="st2" d="M14.6,1l3.9,0.1c-0.2,0-0.4,0-0.6,0L14,1C14.2,1,14.4,1,14.6,1z"/>
<path class="st0" d="M17.3,28.8l-3.9-0.1C6.5,28.4,1,22.4,1,15C1,7.4,6.8,1.1,14,1l3.9,0.1c-7.2,0.1-13,6.4-13,14
	C4.9,22.6,10.4,28.5,17.3,28.8z"/>
<path class="st3" d="M17.3,28.8l-3.9-0.1C6.5,28.4,1,22.4,1,15c0-2.6,0.7-5,1.8-7.1l3.9,0.1c-1.2,2.1-1.8,4.5-1.8,7.1
	C4.9,22.6,10.4,28.5,17.3,28.8z"/>
<linearGradient id="SVGID_1_" gradientUnits="userSpaceOnUse" x1="2.8059" y1="25.8456" x2="9.4707" y2="25.8456" gradientTransform="matrix(1 0 0 -1 0 32.0598)">
	<stop  offset="0" style="stop-color:#8C98FF"/>
	<stop  offset="9.660001e-02" style="stop-color:#8C8FFF"/>
	<stop  offset="0.3074" style="stop-color:#8C82FF"/>
	<stop  offset="0.5018" style="stop-color:#8C7EFF"/>
</linearGradient>
<path class="st4" d="M6.7,8.1L2.8,7.9c0.7-1.3,1.7-2.5,2.8-3.5l3.9,0.1C8.4,5.5,7.4,6.7,6.7,8.1z"/>
<linearGradient id="SVGID_00000059311379053900863180000013513468492017283000_" gradientUnits="userSpaceOnUse" x1="5.6027" y1="29.118" x2="15.1167" y2="29.118" gradientTransform="matrix(1 0 0 -1 0 32.0598)">
	<stop  offset="0" style="stop-color:#8C98FF"/>
	<stop  offset="7.120000e-02" style="stop-color:#8697F2"/>
	<stop  offset="0.2219" style="stop-color:#7B94DC"/>
	<stop  offset="0.3676" style="stop-color:#7493CF"/>
	<stop  offset="0.5018" style="stop-color:#7292CB"/>
</linearGradient>
<path style="fill:url(#SVGID_00000059311379053900863180000013513468492017283000_);stroke:#000000;stroke-width:0.5084;stroke-miterlimit:10;" d="
	M9.5,4.5L5.6,4.4c1.6-1.4,3.5-2.5,5.6-3l3.9,0.1C13,2,11.1,3.1,9.5,4.5z"/>
<path class="st1" d="M15.1,1.5l-3.9-0.1C12.1,1.2,13,1,14,1l3.9,0.1C16.9,1.2,16,1.3,15.1,1.5z"/>
<path class="st2" d="M17.3,28.8l-3.9-0.1C6.5,28.4,1,22.4,1,15C1,7.4,6.8,1.1,14,1l3.9,0.1c-7.2,0.1-13,6.4-13,14
	C4.9,22.6,10.4,28.5,17.3,28.8z"/>
<linearGradient id="SVGID_00000179636292988543163800000008582725277993607576_" gradientUnits="userSpaceOnUse" x1="4.8645" y1="17.0808" x2="30.8971" y2="17.0808" gradientTransform="matrix(1 0 0 -1 0 32.0598)">
	<stop  offset="0" style="stop-color:#2580C3"/>
	<stop  offset="0.2384" style="stop-color:#2882C5"/>
	<stop  offset="0.437" style="stop-color:#3387CB"/>
	<stop  offset="0.6212" style="stop-color:#4491D6"/>
	<stop  offset="0.7968" style="stop-color:#5C9EE5"/>
	<stop  offset="0.9647" style="stop-color:#7BAFF8"/>
	<stop  offset="1" style="stop-color:#83B3FD"/>
</linearGradient>
<path style="fill:url(#SVGID_00000179636292988543163800000008582725277993607576_);stroke:#000000;stroke-width:0.5084;stroke-miterlimit:10;" d="
	M17.8,1.2c7.2-0.1,13,6,13.1,13.6c0,7.6-5.8,13.9-13,14c-7.2,0.1-13-6-13.1-13.6C4.8,7.5,10.6,1.3,17.8,1.2z"/>
<path class="st7" d="M20.3,15.2L20.3,15.2c-0.9,0.4-2,0-2.4-0.9c0.4,0.9,0,1.9-0.9,2.3l0,0c0.9-0.4,2,0,2.4,0.9
	C19,16.6,19.4,15.6,20.3,15.2z"/>
<path class="st7" d="M16.3,7.5l-2.5,1.1c-0.3,0.1-0.5,0.4-0.6,0.8l-0.8,13.1c0,0.4,0.4,0.7,0.8,0.5l2.9-1.2c0.3-0.1,0.5-0.4,0.6-0.8
	l0.2-3.6c0-0.5-0.2-1-0.6-1.3l-2.1-1.6c-0.6-0.4-0.5-1.3,0.2-1.5l5-2.1c0.7-0.3,1.4,0.2,1.3,0.9l-0.2,2.8c0,0.3,0.1,0.6,0.3,0.8
	l3.2,2.5c0.3,0.2,0.7,0.3,1,0.1l2.9-1.2c0.4-0.2,0.4-0.6,0.1-0.9L17.3,7.6C17,7.4,16.7,7.4,16.3,7.5z"/>
</svg>
