<svg width="376" height="217" viewBox="0 0 376 217" fill="none" xmlns="http://www.w3.org/2000/svg">
<path d="M80.4767 190.754L55.3329 158.76L63.2758 154.174L118.403 168.857L111.95 172.583L75.5754 162.545C73.46 161.977 71.414 161.327 69.4513 160.599C67.6386 159.885 65.9367 159.081 64.3649 158.197L61.9502 159.591C63.5251 160.522 64.949 161.535 66.2042 162.616C67.4291 163.728 68.5043 164.892 69.4204 166.099L86.6933 187.165L80.4767 190.754ZM77.949 179.921L74.4862 175.798L92.3243 165.5L99.4656 167.499L77.949 179.921Z" fill="white"/>
<path d="M134.741 160.35C132.817 161.478 130.577 162.411 128.114 163.108C125.882 163.748 123.423 164.079 120.931 164.075C118.485 164.06 116.098 163.637 114.057 162.859L117.52 158.926C118.764 159.359 120.143 159.647 121.579 159.774C123.045 159.894 124.54 159.798 125.925 159.495C127.626 159.103 129.158 158.502 130.415 157.733C132.088 156.881 133.301 155.769 133.909 154.53C134.102 154.064 134.079 153.578 133.841 153.119C133.602 152.661 133.158 152.247 132.553 151.92C132.067 151.626 131.476 151.396 130.821 151.248C130.167 151.099 129.463 151.035 128.761 151.059C126.719 151.246 124.8 151.744 123.202 152.501L119.123 154.132C117.2 154.885 115.135 155.507 112.968 155.989C111.166 156.373 109.221 156.478 107.327 156.292C105.242 156.039 103.345 155.417 101.901 154.512C100.278 153.598 99.2165 152.402 98.8803 151.107C98.5235 149.745 98.8111 148.353 99.7126 147.079C100.968 145.353 102.899 143.82 105.354 142.598C107.809 141.376 110.721 140.499 113.862 140.037C116.918 139.704 120.08 139.965 122.853 140.778L119.914 144.599C118.834 144.288 117.67 144.085 116.472 144C115.12 143.921 113.756 144.006 112.464 144.249C110.855 144.571 109.405 145.114 108.241 145.833C106.688 146.613 105.626 147.669 105.22 148.835C105.09 149.261 105.139 149.7 105.365 150.113C105.59 150.526 105.985 150.901 106.515 151.208C106.935 151.475 107.457 151.683 108.041 151.814C108.624 151.944 109.252 151.995 109.875 151.961C111.768 151.723 113.54 151.235 115.054 150.537L119.082 148.935C121.949 147.845 125.151 147.08 128.515 146.681C130.167 146.503 131.871 146.578 133.458 146.899C135.044 147.219 136.457 147.774 137.557 148.508C139.264 149.449 140.417 150.675 140.855 152.014C141.245 153.399 140.927 154.82 139.941 156.102C138.708 157.701 136.941 159.145 134.741 160.35Z" fill="white"/>
<path d="M162.248 143.543C160.918 144.353 159.294 144.983 157.491 145.388C155.962 145.71 154.291 145.727 152.744 145.435C150.947 145.061 149.33 144.445 148.027 143.638L130.96 133.784L124.456 137.539L120.006 134.97L126.511 131.215L117.602 126.072L123.007 122.951L129.871 126.914C130.416 127.229 131.155 127.406 131.926 127.406C132.697 127.406 133.436 127.229 133.981 126.914L139.632 123.651L144.071 126.214L136.365 130.663L152.98 140.256C153.302 140.514 153.725 140.723 154.214 140.867C154.704 141.012 155.246 141.087 155.796 141.087C156.345 141.087 156.887 141.012 157.377 140.868C157.866 140.723 158.289 140.514 158.611 140.256L164.602 136.798L169.267 139.491L162.248 143.543Z" fill="white"/>
<path d="M175.359 135.973L146.814 119.492L152.055 116.467C153.376 117.286 154.409 118.245 155.096 119.291C155.969 120.472 156.664 121.695 157.172 122.945L160.255 121.165C158.432 119.503 157.372 117.6 157.172 115.636C157.214 114.715 157.585 113.809 158.26 112.974C158.935 112.139 159.901 111.394 161.097 110.784C161.983 110.244 162.988 109.776 164.087 109.389L169.605 112.575C168.445 113.085 167.34 113.636 166.297 114.224C164.451 115.207 163.108 116.463 162.412 117.855C161.901 119.115 162.125 120.437 163.05 121.616C164.248 123.094 165.917 124.429 167.971 125.55L180.692 132.894L175.359 135.973Z" fill="white"/>
<path d="M209.423 117.232C207.003 118.654 203.93 119.646 200.565 120.092C197.146 120.53 193.584 120.425 190.259 119.789C186.684 119.117 183.447 117.952 180.826 116.396C178.089 114.868 176.024 112.985 174.805 110.902C173.685 108.991 173.5 106.938 174.271 104.97C175.087 103.02 176.818 101.239 179.275 99.8204C181.731 98.4022 184.817 97.4026 188.194 96.9313C191.592 96.4909 195.136 96.606 198.428 97.2635C202.023 97.9798 205.276 99.1748 207.922 100.752C210.638 102.262 212.676 104.131 213.862 106.198C214.944 108.11 215.122 110.154 214.375 112.118C213.619 114.064 211.898 115.841 209.423 117.232ZM204.758 114.539C206.238 113.716 207.267 112.659 207.717 111.501C208.136 110.293 207.896 109.039 207.029 107.912C205.921 106.459 204.316 105.149 202.312 104.062C200.388 102.882 198.08 101.933 195.52 101.268C193.548 100.754 191.35 100.598 189.221 100.823C187.204 101.068 185.36 101.657 183.929 102.514C182.405 103.351 181.352 104.435 180.909 105.622C180.527 106.848 180.796 108.111 181.679 109.247C182.81 110.733 184.437 112.076 186.467 113.198C188.37 114.348 190.656 115.264 193.188 115.892C195.135 116.391 197.302 116.532 199.394 116.295C201.442 116.026 203.307 115.416 204.758 114.539Z" fill="white"/>
<path d="M237.782 112.89L198.017 89.9316L202.908 87.1077C203.929 87.7558 204.706 88.5195 205.189 89.3502C205.804 90.2562 206.238 91.1996 206.484 92.1622L209.566 90.3825C208.891 89.4471 208.378 88.4754 208.035 87.4815C207.722 86.4302 207.82 85.3518 208.323 84.3254C208.97 83.0599 210.19 81.9171 211.858 81.0151C213.96 79.7666 216.694 78.9357 219.667 78.6421C222.837 78.3547 226.083 78.5848 229.038 79.3065C232.629 80.1694 235.872 81.452 238.563 83.0736C241.353 84.619 243.557 86.4815 245.037 88.5434C246.287 90.2435 246.675 92.1135 246.157 93.936C245.622 95.6459 244.174 97.2162 242.016 98.4269C239.966 99.7585 237.123 100.595 234.052 100.77C231.195 100.831 228.355 100.481 225.791 99.7499L222.626 101.577C225.105 101.908 227.516 102.389 229.819 103.013C232.548 103.844 235.017 104.933 237.125 106.234L243.228 109.758L237.782 112.89ZM235.707 96.7421C237.141 95.9415 238.177 94.9336 238.707 93.8233C239.17 92.6561 238.934 91.4329 238.039 90.3528C236.798 88.8241 235.061 87.4467 232.922 86.295C230.928 85.0621 228.537 84.0648 225.884 83.3584C223.981 82.857 221.854 82.7118 219.801 82.9431C217.877 83.2266 216.134 83.8214 214.776 84.6576C213.312 85.4746 212.306 86.5265 211.889 87.6772C211.555 88.9115 211.852 90.1751 212.741 91.3139C213.857 92.7916 215.471 94.1266 217.489 95.2412C219.415 96.4006 221.72 97.3281 224.27 97.9701C226.171 98.4937 228.311 98.654 230.381 98.4279C232.45 98.2017 234.341 97.6009 235.779 96.7124L235.707 96.7421Z" fill="white"/>
<path d="M271.547 81.3645C269.13 82.7879 266.056 83.7804 262.69 84.224C259.271 84.6681 255.707 84.5635 252.384 83.9214C248.808 83.2497 245.568 82.0874 242.941 80.5339C240.206 79.0038 238.145 77.1182 236.93 75.0345C235.803 73.1261 235.614 71.0746 236.385 69.108C237.201 67.1585 238.933 65.3768 241.389 63.9586C243.845 62.5404 246.932 61.5407 250.308 61.0694C253.709 60.6243 257.257 60.7373 260.553 61.3957C264.148 62.112 267.4 63.3071 270.047 64.884C272.758 66.4017 274.783 68.2797 275.945 70.3538C277.031 72.263 277.212 74.3052 276.469 76.2685C275.712 78.2051 274.003 79.9746 271.547 81.3645ZM266.882 78.6711C268.361 77.847 269.389 76.7912 269.842 75.6337C270.255 74.4249 270.015 73.1719 269.153 72.0445C268.039 70.5933 266.435 69.2845 264.437 68.1944C262.508 67.0178 260.201 66.0688 257.645 65.4002C255.671 64.8889 253.475 64.7338 251.346 64.9552C249.329 65.2014 247.486 65.7903 246.054 66.646C244.579 67.476 243.56 68.5387 243.126 69.7012C242.714 70.9346 242.962 72.2111 243.835 73.3616C244.993 74.8373 246.636 76.1691 248.674 77.2829C250.563 78.4369 252.829 79.3625 255.343 80.0059C257.318 80.5028 259.512 80.6334 261.621 80.3797C263.623 80.1136 265.449 79.5205 266.882 78.6711Z" fill="white"/>
<path d="M288.749 70.5083L260.204 54.0278L265.444 51.0022C266.765 51.821 267.798 52.78 268.486 53.8261C269.359 55.0074 270.053 56.2301 270.561 57.4805L273.644 55.7008C271.822 54.0383 270.761 52.1357 270.561 50.1717C270.603 49.2506 270.974 48.3444 271.649 47.5095C272.324 46.6746 273.29 45.9289 274.486 45.3189C275.372 44.7798 276.377 44.311 277.477 43.9248L282.994 47.1105C281.834 47.6204 280.729 48.1712 279.686 48.7598C277.841 49.7423 276.497 50.998 275.802 52.3904C275.29 53.6505 275.514 54.9727 276.439 56.1516C277.637 57.6296 279.307 58.964 281.361 60.0849L294.082 67.4293L288.749 70.5083Z" fill="white"/>
<path d="M322.699 50.9068C321.374 51.7171 319.752 52.3455 317.951 52.7459C316.423 53.0682 314.751 53.0849 313.204 52.7934C311.401 52.4253 309.779 51.8105 308.478 51.0018L291.41 41.1479L284.906 44.9032L280.457 42.3344L286.961 38.5791L278.052 33.4357L283.467 30.3092L290.331 34.2721C290.876 34.5868 291.615 34.7636 292.386 34.7636C293.157 34.7636 293.896 34.5868 294.441 34.2721L300.093 31.0093L304.532 33.5721L296.825 38.0215L313.441 47.6143C313.762 47.8716 314.185 48.0811 314.675 48.2256C315.164 48.3701 315.706 48.4454 316.256 48.4454C316.806 48.4454 317.348 48.3701 317.837 48.2256C318.327 48.0811 318.75 47.8716 319.071 47.6143L325.062 44.1557L329.727 46.849L322.699 50.9068Z" fill="white"/>
<path d="M12.3305 159.015L4.11015 163.761L0 166.134L4.11015 168.507L12.3305 173.253L16.4406 170.88L8.2203 166.134L16.4406 161.388L12.3305 159.015Z" fill="white"/>
<path d="M87.5155 211.915L79.2952 207.169L75.1851 209.542L83.4054 214.288L87.5155 216.661L91.6257 214.288L99.846 209.542L95.7358 207.169L87.5155 211.915Z" fill="white"/>
<path d="M283.642 2.37339L275.421 7.11938L279.532 9.49238L287.752 4.74639L295.972 9.49238L300.082 7.11938L291.862 2.37339L287.752 0.000394821L283.642 2.37339Z" fill="white"/>
<path d="M358.827 45.7818L367.047 50.5278L358.827 55.2738L362.937 57.6468L371.157 52.9008L375.267 50.5278L371.157 48.1548L362.937 43.4088L358.827 45.7818Z" fill="white"/>
</svg>
