<svg width="1440" height="730" viewBox="0 0 1440 730" fill="none" xmlns="http://www.w3.org/2000/svg">
<g opacity="0.7">
<path d="M-195.053 111.3C-189.313 110.29 -183.483 109.53 -177.893 109.94C-168.243 110.63 -82.7231 154.98 -77.3531 161.56C-75.5831 163.72 -75.2931 166.59 -74.0931 169.05C-71.9631 173.42 -67.1431 176.23 -62.5331 178.86C-55.7831 182.71 -49.0631 186.59 -42.3831 190.5C-39.7131 192.06 -36.1131 193.62 -33.0931 191.94C-31.9731 191.32 -31.0631 190.28 -29.7831 190.08C-28.6631 189.9 -27.6731 190.42 -26.8131 190.94C-12.5631 199.5 -2.17313 213.47 8.06688 225.38C14.4769 232.84 20.9669 240.42 29.5269 246.06C36.9069 250.92 45.5769 254.2 54.1169 257.49C64.0869 261.33 74.0069 265.23 83.8669 269.19C87.3069 270.57 92.9168 271.13 94.0168 267.8C84.4468 260.09 73.5569 253.58 61.6768 248.52C61.3268 248.36 77.4468 243.26 79.8568 243.19C86.8868 242.92 96.1269 246.4 101.987 249.06C139.287 266.08 164.017 292.26 204.897 305.21C205.817 299.77 203.487 294.13 198.847 290.72C213.237 288.31 224.167 299.82 232.707 309.61C244.877 323.53 258.957 336.61 276.697 344.28C282.227 346.67 288.937 348.47 294.517 345.79C291.727 342.53 288.927 339.27 286.107 336.01C317.907 325.66 326.197 349.65 343.827 364.66C359.377 377.94 384.667 371.4 405.877 374.47C427.357 377.56 444.827 390.84 461.597 403.07C494.487 427.06 528.727 448.9 563.837 468.46C533.557 465.65 510.917 439.62 481.057 431.15C451.057 422.66 417.507 432.97 387.597 424.34C358.347 415.91 331.437 387.27 297.717 391.17C287.267 392.39 276.827 397.8 266.807 395.29C256.087 392.6 246.887 381.2 236.407 385.51C238.927 389.19 240.147 393.63 239.877 398.05C221.127 397.27 205.437 386.09 190.557 375.86C165.327 358.55 142.207 346.23 110.147 340.04C82.8868 334.8 54.2269 333.38 28.0969 324.21C23.9669 322.76 19.6569 320.97 17.5769 317.53C15.4269 313.99 16.0769 309.32 13.6669 305.92C11.8469 303.35 8.57687 301.93 5.43687 300.64C-20.2431 290.07 -46.7331 280.59 -73.9531 272.27C-67.9431 278.34 -63.3331 285.45 -60.3431 293.16C-87.8831 288.54 -168.223 263.14 -186.693 246.55C-203.353 231.34 -192.833 213.79 -194.393 191.98C-195.483 177.19 -212.773 114.43 -195.053 111.3Z" fill="#475696" stroke="#000D37" stroke-miterlimit="10"/>
<path d="M102.387 28.1397C109.257 31.6897 121.327 24.3197 126.707 29.2497C133.297 35.2997 131.917 50.3397 134.587 58.3797C134.907 59.3397 135.207 60.3997 134.637 61.3597C133.867 62.6497 131.907 63.1297 130.217 63.4597C119.897 65.4297 109.427 67.4897 99.1167 67.2197C94.0467 67.0897 88.8367 66.4197 83.8967 67.9497C78.9467 69.4697 74.6967 74.3297 76.9667 77.7997C77.5167 78.6397 78.3667 79.2897 79.2167 79.9397C89.3067 87.6497 99.3067 95.4097 109.227 103.24C111.037 104.67 112.927 106.13 115.407 106.68C117.887 107.22 121.117 106.53 122.457 104.56C124.067 102.18 122.207 99.5297 120.297 97.5997C115.737 92.9697 110.647 88.7097 105.087 84.8797C108.897 81.1997 115.147 79.2597 120.567 80.0797C122.467 80.3697 124.297 80.9697 126.277 80.8397C128.757 80.6797 131.027 79.4297 133.127 78.1997C137.017 75.9397 141.077 73.5597 145.657 72.8797C150.227 72.1897 155.417 73.8497 156.287 77.3997C156.927 80.0197 155.167 82.7797 154.547 85.4997C153.927 88.2197 155.457 91.6697 158.807 91.4097C160.527 91.2797 161.997 90.1897 163.157 89.0697C168.847 83.5997 171.977 75.4897 180.207 73.1997C190.907 70.2197 205.767 80.4497 214.347 84.0497C223.597 87.7297 267.887 102.31 263.757 113.74C263.327 114.95 262.267 116.08 262.387 117.31C262.487 118.4 263.497 119.22 264.437 119.95C274.377 127.54 284.237 135.2 293.997 142.91C295.777 144.31 297.787 145.8 300.307 145.81C302.167 145.81 303.937 145 305.797 144.75C310.177 144.16 314.017 146.78 316.477 149.7C326.377 161.45 334.187 174.74 338.797 188.81C340.917 195.17 350.867 232.98 365.727 223.49C367.577 222.31 369.117 220.7 371.237 219.95C376.097 218.22 380.937 221.76 384.217 225.09C393.087 234.08 400.977 243.75 408.237 253.75C411.007 257.55 418.377 264.73 418.657 269.31C418.937 273.98 413.247 278.21 414.067 283.88C414.517 287.03 415.987 290 418.077 292.54C426.137 302.32 441.947 307.02 451.817 315.08C463.747 324.78 479.287 329.96 491.597 339.48C502.287 347.75 509.447 359.07 518.467 368.78C527.847 378.89 539.167 387.23 550.277 395.61C582.437 419.84 613.527 444.77 643.517 470.36C613.587 451.1 582.817 432.49 551.237 414.57C536.427 406.16 521.267 397.8 508.887 386.34C494.327 372.87 482.947 354.64 462.997 348.67C449.677 344.7 435.747 347.71 422.117 345.98C409.677 344.41 398.867 338 386.017 336.95C379.497 336.42 372.677 336.97 366.587 334.89C360.507 332.81 355.407 326.74 357.907 321.17C359.787 316.98 365.187 314.67 367.247 310.54C369.057 306.91 367.867 302.79 366.647 299.06C362.597 286.72 360.807 263.55 349.917 254.78C347.247 252.63 342.447 252.14 339.957 254.63C356.267 269.03 320.937 263.91 315.637 270.97C314.827 272.04 314.117 273.3 312.797 273.86C311.917 274.23 310.907 274.22 309.967 274.09C305.427 273.5 301.817 270.69 298.627 267.88C295.427 265.07 292.187 262.05 287.817 260.84C283.447 259.63 277.587 261.03 275.847 264.87C269.197 263.73 264.557 258.81 260.687 254.05C250.157 241.11 237.717 207.3 215.767 205.77C209.957 205.37 204.217 207.71 198.487 209.13C182.337 213.04 148.557 209.65 140.607 195.62C146.397 195.25 152.177 195.77 157.587 197.14C162.427 198.36 167.687 200.23 172.467 198.26C170.937 195.51 167.627 193.9 164.477 192.44C149.157 185.35 133.737 178.8 118.527 171.47C115.867 170.19 112.967 167.35 115.307 165.35C108.057 157.11 98.5667 150.3 87.5967 145.54C85.9167 144.81 84.1067 144.04 83.3667 142.59C81.8167 139.55 85.8667 136.16 89.5567 134.29C86.7167 132.28 83.8767 130.28 81.0267 128.28C80.3067 127.77 79.5267 127.25 78.5467 127.17C76.0267 126.98 74.3967 129.56 72.3567 131C67.9767 134.08 61.8867 131.72 57.6067 129.3C47.9867 123.84 38.3167 118.43 28.5767 113.07C26.3667 111.86 24.0367 110.61 21.2567 110.48C18.4767 110.35 15.1467 111.74 14.3967 114.03C13.2067 117.64 18.4767 119.52 22.5867 120.5C33.2467 123.04 42.6367 128.12 49.5067 134.99C41.5767 138.14 26.1767 130.14 19.4567 128.28C7.66673 124.97 -4.37329 122.14 -16.4933 119.44C-39.9733 114.15 -158.023 63.0397 -181.203 57.0497C-199.973 52.2197 -211.343 39.1597 -192.083 26.6397C-175.173 15.6797 -69.1733 24.0497 -48.8033 17.7897C-5.48328 4.45971 40.6167 -3.61029 102.387 28.1397Z" fill="url(#paint0_linear)" stroke="#000D37" stroke-miterlimit="10"/>
<path d="M364.287 103.64C365.987 104.96 367.177 105.65 367.627 105.41C369.387 104.47 369.997 102.59 370.117 100.9C370.377 97.2999 369.087 93.6999 366.497 90.8999C364.027 88.2099 360.457 86.2799 358.157 83.4899C355.747 80.5599 354.957 76.5699 356.837 73.1999C358.717 69.8299 363.557 67.4299 367.867 68.2299C372.237 75.9599 376.577 83.6999 380.887 91.4499C382.697 94.7099 385.857 98.5399 390.227 97.6599C392.437 97.2199 394.207 95.5999 396.457 95.3499C400.047 94.9399 402.407 98.0199 403.847 100.66C405.597 103.85 407.337 107.05 409.077 110.25C409.657 111.32 410.217 112.66 409.357 113.65C408.657 114.46 407.337 114.65 406.157 114.74C399.387 115.23 392.557 114.32 386.447 112.13C385.817 111.9 385.157 111.66 384.457 111.7C382.497 111.82 381.667 114.11 382.557 115.51C383.447 116.91 385.277 117.66 386.847 118.56C399.617 125.97 398.637 141.38 412.397 148.37C423.237 153.9 434.597 158.72 446.317 162.78C448.557 163.56 450.877 164.34 452.547 165.8C456.787 169.51 455.217 175.67 453.407 180.73C450.717 179.11 447.847 177.66 444.607 177.05C443.147 178.33 443.627 179.54 444.857 180.92C456.927 194.46 468.687 208.52 480.767 221.88C492.107 234.42 505.957 244.13 515.197 258.41C520.277 266.25 524.457 274.63 530.917 281.6C535.147 286.16 540.247 290.03 544.447 294.6C554.727 305.81 560.567 320.45 568.597 332.95C577.787 347.26 587.637 361.34 597.277 375.43C617.857 405.52 638.127 435.62 658.937 465.12C626.697 405.06 596.617 343.41 564.377 282.42C564.077 276.83 556.817 268.19 554.057 263.09C550.587 256.65 547.097 250.22 543.577 243.8C536.897 231.61 529.967 219.58 523.287 207.37C522.727 206.34 522.127 205.27 521.087 204.57C520.047 203.87 518.437 203.65 517.387 204.39C520.367 213.2 522.077 222.35 522.517 231.56C513.747 225.33 510.847 214.92 508.447 205.24C506.527 197.51 511.747 191.71 510.887 185.39C510.017 178.9 501.827 169.96 498.547 163.92C497.917 162.71 490.117 144.84 488.887 153.89C488.717 155.12 489.177 156.33 489.577 157.51C492.187 165.16 492.907 173.29 491.747 181.27C485.437 174.39 478.667 166.28 480.887 157.58C481.607 154.78 483.257 152.09 483.257 149.25C483.257 146.65 481.867 144.24 480.497 141.94C477.427 136.76 474.337 131.58 471.227 126.4C470.387 125 469.517 123.47 469.877 121.91C470.337 119.89 472.617 118.54 474.377 117.06C481.277 111.28 464.567 82.8899 461.647 75.6399C455.497 59.9899 449.247 44.3599 442.917 28.7599C393.827 33.3199 306.277 -8.3701 256.297 2.9599C258.507 12.8899 319.267 62.3399 329.317 70.5099C333.547 73.6499 355.707 96.8599 364.287 103.64Z" fill="#475696" stroke="#000D37" stroke-miterlimit="10"/>
<path d="M557.746 122.95C559.036 127.83 560.876 132.59 563.226 137.17C563.576 132.09 562.006 126.95 558.756 122.69C558.016 122.85 557.546 123.59 557.796 124.19" fill="url(#paint1_linear)"/>
<path d="M557.746 122.95C559.036 127.83 560.876 132.59 563.226 137.17C563.576 132.09 562.006 126.95 558.756 122.69C558.016 122.85 557.546 123.59 557.796 124.19" stroke="#000D37" stroke-miterlimit="10"/>
<path d="M536.337 110.43C535.967 111.91 535.627 113.53 536.497 114.82C537.377 116.11 540.047 116.53 540.927 115.2C541.347 114.56 541.207 113.8 541.057 113.09C540.837 112.07 540.577 110.99 539.717 110.26C538.847 109.52 537.157 109.37 536.417 110.22" fill="url(#paint2_linear)"/>
<path d="M536.337 110.43C535.967 111.91 535.627 113.53 536.497 114.82C537.377 116.11 540.047 116.53 540.927 115.2C541.347 114.56 541.207 113.8 541.057 113.09C540.837 112.07 540.577 110.99 539.717 110.26C538.847 109.52 537.157 109.37 536.417 110.22" stroke="#000D37" stroke-miterlimit="10"/>
<path d="M557.517 59.1901C554.597 62.6001 554.617 67.4501 557.527 70.7401C561.637 70.0001 562.287 65.4901 561.987 62.1001C561.887 61.0101 561.697 59.7801 560.617 59.1301C559.537 58.4901 557.457 59.2601 557.887 60.2901" fill="url(#paint3_linear)"/>
<path d="M557.517 59.1901C554.597 62.6001 554.617 67.4501 557.527 70.7401C561.637 70.0001 562.287 65.4901 561.987 62.1001C561.887 61.0101 561.697 59.7801 560.617 59.1301C559.537 58.4901 557.457 59.2601 557.887 60.2901" stroke="#000D37" stroke-miterlimit="10"/>
<path d="M566.467 151.8C567.167 158.55 569.687 165.13 573.757 170.92C574.297 163.17 572.297 155.33 567.977 148.53C567.427 148.52 566.887 148.51 566.337 148.5C566.367 149.82 566.397 151.14 566.427 152.47" fill="url(#paint4_linear)"/>
<path d="M566.467 151.8C567.167 158.55 569.687 165.13 573.757 170.92C574.297 163.17 572.297 155.33 567.977 148.53C567.427 148.52 566.887 148.51 566.337 148.5C566.367 149.82 566.397 151.14 566.427 152.47" stroke="#000D37" stroke-miterlimit="10"/>
<path d="M547.027 136.84C547.677 135.18 546.207 133.22 544.147 132.99C541.807 138.77 544.807 145.63 550.947 148.71C553.907 147.63 553.607 143.91 551.857 141.69C550.107 139.46 547.387 137.58 546.977 134.92" fill="url(#paint5_linear)"/>
<path d="M547.027 136.84C547.677 135.18 546.207 133.22 544.147 132.99C541.807 138.77 544.807 145.63 550.947 148.71C553.907 147.63 553.607 143.91 551.857 141.69C550.107 139.46 547.387 137.58 546.977 134.92" stroke="#000D37" stroke-miterlimit="10"/>
<path d="M574.006 33.3999C580.196 48.4099 589.756 64.8199 591.486 80.7199C592.976 79.6099 594.466 78.4999 595.966 77.3999C596.336 85.5199 596.717 93.6399 597.087 101.76C594.237 102.11 593.957 105.4 594.457 107.73C596.417 116.9 598.356 126.08 600.286 135.26C600.606 136.77 600.916 138.29 601.236 139.8C605.786 161.61 609.036 182.4 614.986 203.95C620.536 224.1 623.306 244.75 626.596 265.28C634.236 312.9 644.556 360.13 655.626 407.11C650.246 384.38 649.407 359.67 646.517 336.53C643.497 312.44 640.576 288.35 637.756 264.23C634.946 240.12 632.246 215.99 629.676 191.86C627.296 169.64 627.606 145.89 621.416 124.19C618.546 125 618.506 128.3 618.806 130.79C619.436 135.95 619.136 141.19 617.936 146.29C616.496 146.41 615.686 144.97 615.356 143.79C613.706 137.97 612.917 131.98 613.027 125.98C613.067 123.9 613.246 121.71 614.596 119.93C615.936 118.16 618.816 117 621.056 117.93C620.656 117.77 621.786 92.7199 618.666 88.8199C617.976 87.9599 617.186 87.1499 616.676 86.2199C616.046 85.0499 615.886 83.7399 615.766 82.4599C614.356 67.0599 615.056 49.4899 616.486 34.0299C616.786 30.7199 617.266 27.2099 615.436 24.2499C612.486 19.4799 604.686 18.0599 598.006 18.6399C583.806 19.8299 567.596 17.8699 574.006 33.3999Z" fill="url(#paint6_linear)" stroke="#000D37" stroke-miterlimit="10"/>
<path d="M633.777 116.71C636.947 114.86 637.057 111.09 636.897 107.89C635.817 86.7001 637.167 65.4101 641.097 44.4001C642.427 37.3601 635.757 28.0001 632.607 38.9601C630.287 47.0601 631.787 57.18 631.717 65.4601C631.647 74.2901 631.797 83.1101 632.167 91.9301C632.287 94.8401 635.787 115.54 633.777 116.71Z" fill="url(#paint7_linear)" stroke="#000D37" stroke-miterlimit="10"/>
<path d="M647.867 67.0098C645.597 67.1498 644.787 69.4898 644.577 71.3298C644.287 73.7898 643.987 76.2498 643.697 78.7098C643.607 79.4398 643.667 80.3598 644.497 80.6298C645.547 80.9698 646.407 79.8798 646.747 78.9998C648.197 75.1898 649.157 71.2598 649.587 67.2898C648.747 66.8798 647.517 67.1198 646.987 67.7998" fill="url(#paint8_linear)"/>
<path d="M647.867 67.0098C645.597 67.1498 644.787 69.4898 644.577 71.3298C644.287 73.7898 643.987 76.2498 643.697 78.7098C643.607 79.4398 643.667 80.3598 644.497 80.6298C645.547 80.9698 646.407 79.8798 646.747 78.9998C648.197 75.1898 649.157 71.2598 649.587 67.2898C648.747 66.8798 647.517 67.1198 646.987 67.7998" stroke="#000D37" stroke-miterlimit="10"/>
<path d="M235.497 290.2C217.477 280.11 195.707 275.79 176.687 266.96C161.917 260.11 149.067 250.6 134.437 243.39C114.147 233.39 90.8467 228.09 67.5967 223.24C68.5367 219.7 74.0367 218.72 78.2267 218.63C89.9967 218.37 101.987 218.23 112.847 221.27C118.867 222.96 124.367 225.58 129.817 228.2C152.017 238.89 173.897 249.9 195.447 261.2C211.067 269.39 226.527 277.75 241.377 286.8C249.597 291.81 257.617 297.02 265.447 302.44C268.307 304.38 285.567 313.58 276.587 316.32C268.617 318.74 242.587 294.07 235.497 290.2Z" fill="url(#paint9_linear)" stroke="#000D37" stroke-miterlimit="10"/>
<path d="M-120.413 356.52C-123.623 350.83 -127.203 345.52 -134.523 345.51C-138.313 345.5 -142.043 347.52 -145.753 346.75C-149.383 345.99 -151.893 342.81 -154.583 340.26C-161.193 334.02 -170.123 330.99 -178.753 328.14C-184.313 336.91 -182.253 348.22 -181.273 358.56C-178.263 390.22 -187.253 422.08 -184.533 453.76C-184.443 454.82 -184.303 455.96 -183.613 456.77C-182.933 457.57 -181.843 457.89 -180.813 458.1C-173.873 459.55 -166.683 458.21 -159.713 456.87C-147.053 454.43 -134.403 452 -121.743 449.56C-120.473 449.32 -119.063 449.09 -117.953 449.76C-114.163 452.04 -119.763 458.85 -116.813 462.14C-115.813 463.26 -114.153 463.48 -112.643 463.44C-101.223 463.18 -91.913 454.91 -80.373 454.42C-66.663 453.84 -56.783 446.28 -44.653 440.72C-30.263 434.13 -17.173 436.99 -2.69304 440.35C-2.52304 442.46 -5.89304 443.09 -7.75304 444.49C-10.353 446.45 -9.63303 450.43 -7.20303 452.27C-4.77304 454.11 -1.35304 454.42 1.85696 454.67C14.217 455.62 26.527 456.67 38.787 457.83C39.957 457.94 41.157 458.05 42.307 457.76C45.767 456.9 47.237 453.11 48.127 449.9C51.107 439.19 53.147 434.25 65.867 439.65C69.867 441.36 73.217 444.8 73.317 448.93C73.357 450.41 72.987 451.9 73.087 453.38C73.427 458.26 78.767 461.41 83.927 462.18C89.097 462.96 94.487 462.13 99.667 462.85C105.517 463.66 110.777 466.38 116.517 467.56C119.537 468.18 122.647 468.36 125.737 468.55C139.257 469.37 152.727 470.33 166.157 471.41C177.157 472.31 172.067 466.53 176.797 462.29C181.917 457.72 191.157 456.78 197.687 455.61C215.847 452.33 234.697 453.61 251.687 459.53C255.247 460.77 259.207 462.79 259.607 466.37C279.207 466.33 298.747 465.4 318.257 464.73C322.627 464.58 326.987 464.45 331.347 464.33C366.897 463.35 401.397 463.64 436.227 467.56C445.567 468.6 461.487 473.84 470.477 471.88C466.797 472.68 463.127 473.5 459.457 474.32C463.827 477.37 469.807 478.15 474.887 476.33C462.597 467.64 448.477 461.26 433.517 457.7C384.807 446.09 332.977 455.55 285.997 432.94C282.527 431.27 278.547 429.4 274.817 430.74C272.907 431.42 271.417 432.86 269.657 433.84C265.277 436.29 259.857 435.72 254.877 435.09C233.537 432.37 209.607 432.51 188.957 426.95C169.247 421.63 150.897 412.86 131.087 407.25C128.907 406.63 126.627 406.05 124.327 406.42C121.977 406.79 119.877 408.13 117.547 408.67C114.357 409.41 111.097 408.61 107.997 407.82C100.227 405.83 92.177 403.77 86.107 399.05C80.247 394.49 76.247 387.26 68.537 384.83C62.347 382.87 52.097 383.97 45.267 383.58C25.337 382.43 5.65697 382.51 -13.123 376.86C-13.613 378.57 -14.103 380.28 -14.583 381.99C-28.373 383.48 -40.523 376.42 -52.133 370.49C-63.723 364.56 -78.143 359.52 -91.293 365.04C-95.913 366.98 -100.293 370.2 -105.213 370.26C-113.383 370.38 -116.653 363.18 -120.413 356.52Z" fill="url(#paint10_linear)" stroke="#000D37" stroke-miterlimit="10"/>
<path d="M17.8071 206.14C13.6371 210.62 17.4671 216.47 21.2671 220.47C23.6871 223.02 26.1071 225.57 28.5171 228.13C30.3571 230.08 33.5371 232.16 36.0871 230.47C34.0071 223.18 30.9071 216.17 26.8571 209.65C26.0071 208.29 25.0571 206.89 23.4571 206.15C21.8571 205.41 19.4271 205.61 18.2671 206.99" fill="url(#paint11_linear)"/>
<path d="M17.8071 206.14C13.6371 210.62 17.4671 216.47 21.2671 220.47C23.6871 223.02 26.1071 225.57 28.5171 228.13C30.3571 230.08 33.5371 232.16 36.0871 230.47C34.0071 223.18 30.9071 216.17 26.8571 209.65C26.0071 208.29 25.0571 206.89 23.4571 206.15C21.8571 205.41 19.4271 205.61 18.2671 206.99" stroke="#000D37" stroke-miterlimit="10"/>
<path d="M-71.6938 148.75C-67.4338 151.77 -61.7938 153.22 -56.6238 155.18C-38.6938 162 -26.1938 175.08 -11.1938 185.29C-8.22381 187.32 -5.12381 189.25 -1.61381 190.62C1.59619 191.87 5.0962 192.62 8.5662 193.38C18.5862 195.56 28.5562 197.8 38.4862 200.11C31.3262 193.24 20.0762 190.56 10.3562 186.3C-1.71381 181 -11.8138 172.91 -18.5538 163C-21.9638 157.98 -26.4438 151.7 -33.7838 153.03C-33.0938 155.15 -31.7738 157.07 -29.9638 158.59C-35.1338 158.4 -39.0038 155.14 -41.3838 151.53C-43.7638 147.92 -45.1338 143.8 -47.8838 140.4C-52.5238 134.64 -61.1938 131.44 -70.2138 132.21C-81.5838 133.2 -76.0638 145.65 -71.6938 148.75Z" fill="url(#paint12_linear)" stroke="#000D37" stroke-miterlimit="10"/>
<path d="M45.7765 214.41C48.5665 217.71 51.8465 220.68 55.5265 223.27C57.5965 220.46 57.5165 216.73 55.2965 214.35C53.0765 211.97 48.8865 211.11 45.2665 212.3C45.2365 213.43 45.9765 214.49 47.1365 214.96" fill="url(#paint13_linear)"/>
<path d="M45.7765 214.41C48.5665 217.71 51.8465 220.68 55.5265 223.27C57.5965 220.46 57.5165 216.73 55.2965 214.35C53.0765 211.97 48.8865 211.11 45.2665 212.3C45.2365 213.43 45.9765 214.49 47.1365 214.96" stroke="#000D37" stroke-miterlimit="10"/>
<path d="M223.607 63.8499C224.887 67.0199 229.277 68.3399 233.017 69.6999C251.177 76.3299 262.407 90.9699 279.097 99.4199C288.017 103.95 298.467 106.73 305.987 112.69C312.637 117.97 316.857 125.59 325.237 128.85C319.307 117.25 310.247 106.86 298.767 98.6699C295.737 96.5099 292.527 94.4799 289.967 91.9399C287.747 89.7299 286.067 87.1699 284.407 84.6399C276.647 72.7999 268.797 60.9999 260.867 49.2299C260.037 47.9999 259.147 46.7199 257.627 46.0599C255.897 45.2999 253.707 45.4799 251.667 45.6799C238.637 46.9399 216.947 47.4299 223.607 63.8499Z" fill="url(#paint14_linear)" stroke="#000D37" stroke-miterlimit="10"/>
<path d="M332.826 144.19C330.976 148.8 330.626 153.75 331.776 158.37C332.066 159.55 333.156 161.01 334.506 160.48C335.166 160.22 335.476 159.59 335.706 159.01C337.346 154.88 338.076 150.54 337.826 146.27C337.686 143.77 335.036 140.56 332.676 142.24C332.376 143.57 332.076 144.89 331.776 146.22" fill="url(#paint15_linear)"/>
<path d="M332.826 144.19C330.976 148.8 330.626 153.75 331.776 158.37C332.066 159.55 333.156 161.01 334.506 160.48C335.166 160.22 335.476 159.59 335.706 159.01C337.346 154.88 338.076 150.54 337.826 146.27C337.686 143.77 335.036 140.56 332.676 142.24C332.376 143.57 332.076 144.89 331.776 146.22" stroke="#000D37" stroke-miterlimit="10"/>
<path d="M289.267 65.8898C293.157 70.7298 294.427 76.6998 296.927 82.1598C299.427 87.6198 303.867 93.0298 310.877 94.3098C308.157 85.0598 304.397 76.0598 299.617 67.4698C298.787 65.9798 297.877 64.4398 296.217 63.5198C294.567 62.5998 291.957 62.5298 290.527 63.8298C290.637 65.0698 290.747 66.2998 290.847 67.5398" fill="url(#paint16_linear)"/>
<path d="M289.267 65.8898C293.157 70.7298 294.427 76.6998 296.927 82.1598C299.427 87.6198 303.867 93.0298 310.877 94.3098C308.157 85.0598 304.397 76.0598 299.617 67.4698C298.787 65.9798 297.877 64.4398 296.217 63.5198C294.567 62.5998 291.957 62.5298 290.527 63.8298C290.637 65.0698 290.747 66.2998 290.847 67.5398" stroke="#000D37" stroke-miterlimit="10"/>
<path d="M302.237 395.56C299.707 395.25 297.017 395.03 294.667 396.06C292.327 397.08 290.627 399.8 291.777 401.88C292.997 404.1 296.317 404.23 299.047 404.21C309.877 404.11 320.637 406.16 330.397 410.18C334.757 411.98 339.327 414.22 344.057 413.38C347.097 412.84 331.907 402.51 330.127 401.88C321.457 398.68 311.577 396.71 302.237 395.56Z" fill="url(#paint17_linear)" stroke="#000D37" stroke-miterlimit="10"/>
<path d="M720.777 442.16C751.257 410.78 784.817 380.25 808.117 342.88C811.497 337.45 814.727 331.86 819.407 327.29C824.187 322.62 830.297 319.21 835.467 314.88C849.367 303.26 855.357 286.08 864.347 270.97C869.177 262.85 875.007 255.23 880.867 247.66C888.417 237.9 896.057 228.19 903.787 218.5C905.167 216.77 906.667 214.96 908.957 214.2C911.237 213.44 914.457 214.33 914.977 216.42C924.837 207.92 935.147 199.07 939.607 187.62C943.307 178.12 942.587 167.52 946.717 158.15C949.827 151.12 955.547 145.18 961.787 139.85C969.307 133.45 967.337 129.19 969.877 122.48C972.187 116.4 978.257 110.93 983.417 105.56C996.347 91.4002 1058.25 37.8502 1073.34 25.0102C1082.43 16.8902 1092.53 8.48017 1106.32 6.34016C1114.96 5.00016 1124.13 6.32016 1133.04 7.71016C1190.13 16.0602 1293.39 10.4502 1350.39 27.1802C1338.48 23.7802 1261.64 50.3302 1251.65 54.5102C1231.49 61.4702 1163.27 112.16 1146.91 123.05C1142.6 125.77 1137.89 128.61 1132.29 128.62C1129.08 128.62 1125.81 127.67 1122.68 128.07C1119.02 128.53 1116.22 130.72 1113.64 132.82C1103.84 140.8 1094.12 148.84 1084.49 156.93C1079.89 160.79 1074.97 165.72 1076.62 171.24C1076.82 171.33 1077.01 171.43 1077.21 171.52C1082.46 174.02 1084.25 179.68 1081.08 183.68C1071.82 195.36 1055.57 202.76 1040.47 209.42C1030.87 213.65 1021.33 217.94 1011.84 222.29C1011.59 221.76 1011.38 221.21 1011.23 220.65C1010.64 218.56 1008.12 217.3 1005.71 217.67C994.437 219.41 984.647 225.8 977.157 233.22C968.537 241.76 962.107 251.81 953.807 260.54C945.787 268.98 936.167 276.08 926.687 283.2C923.837 285.34 919.647 282.36 921.357 279.41C922.127 278.08 922.907 276.75 923.677 275.42C924.947 273.24 922.447 270.8 919.827 271.63C913.897 273.51 908.877 277.97 904.607 282.26C890.857 296.06 878.197 310.65 866.667 325.89C865.017 328.07 863.327 330.44 863.347 333.11C863.367 335.77 865.917 338.61 868.787 338.12C865.067 348.74 848.847 357.53 839.977 364.62C830.377 372.24 818.017 385.6 806.527 390.24C785.087 398.84 763.647 423.57 746.357 437.87C741.207 442.05 725.447 460.23 718.747 459.68C706.237 458.68 715.697 447.35 720.777 442.16Z" fill="url(#paint18_linear)" stroke="#000D37" stroke-miterlimit="10"/>
<path d="M-76.2733 469.19C-68.9533 471.06 -61.1433 471.21 -53.4433 471.39C-14.5233 472.27 27.8767 479.55 65.9367 475.76C66.6467 478.01 64.7967 480.52 62.4467 481.55C60.1067 482.58 57.4467 482.48 54.9167 482.26C47.9067 481.67 40.9367 480.38 33.8367 480.83C19.8767 481.72 6.33667 489.28 -7.44333 487.91C-13.5033 487.31 -19.1633 484.98 -25.2433 484.38C-31.8433 483.73 -38.8133 485.21 -44.6933 488.51C-47.0433 489.83 -50.2133 491.4 -52.0533 489.7C-53.5733 488.29 -52.7333 485.71 -53.7333 483.94C-55.0433 481.61 -58.9233 481.78 -61.4633 483.27C-64.0033 484.77 -65.8033 487.15 -68.2033 488.83C-88.2333 502.95 -105.223 461.97 -76.2733 469.19Z" fill="url(#paint19_linear)" stroke="#000D37" stroke-miterlimit="10"/>
<path d="M93.2866 481.8C82.9966 483.89 73.0166 487.69 63.9766 492.95C73.9066 492.64 83.8366 491.63 93.6366 489.92C94.9766 489.69 96.3565 489.42 97.4865 488.69C99.8765 487.14 100.277 483.5 98.2466 481.69C96.2166 479.88 92.3465 480.42 90.8065 482.74" fill="url(#paint20_linear)"/>
<path d="M93.2866 481.8C82.9966 483.89 73.0166 487.69 63.9766 492.95C73.9066 492.64 83.8366 491.63 93.6366 489.92C94.9766 489.69 96.3565 489.42 97.4865 488.69C99.8765 487.14 100.277 483.5 98.2466 481.69C96.2166 479.88 92.3465 480.42 90.8065 482.74" stroke="#000D37" stroke-miterlimit="10"/>
<path d="M121.807 478.69C120.767 482.83 122.017 487.34 125.037 490.36C128.357 488.96 130.347 485.13 129.427 481.89C128.507 478.65 124.787 476.43 121.197 477" fill="url(#paint21_linear)"/>
<path d="M121.807 478.69C120.767 482.83 122.017 487.34 125.037 490.36C128.357 488.96 130.347 485.13 129.427 481.89C128.507 478.65 124.787 476.43 121.197 477" stroke="#000D37" stroke-miterlimit="10"/>
<path d="M-74.6729 558.44C-70.2429 555.08 -66.4429 550.57 -63.2629 545.68C-54.2429 531.81 -35.3029 542.79 -22.3229 544.06C-6.49289 545.57 9.48712 544.25 24.8271 539.59C24.2171 536.62 21.9171 534.08 18.9271 533.07C21.3871 529.81 25.7771 528.52 29.8171 527.46C44.6771 523.57 59.5671 519.85 74.4671 516.3C79.5471 515.09 84.6771 513.89 89.8671 513.66C101.547 513.14 111.807 514.52 123.397 512.19C137.637 509.33 151.747 505.48 165.887 502.24C195.307 495.5 224.807 489.4 254.387 483.94C250.727 492.32 236.917 491.25 229.547 493.87C221.147 496.85 213.447 501.71 207.367 508.03C205.497 509.97 203.737 512.07 201.407 513.45C199.357 514.66 196.997 515.24 194.677 515.8C170.137 521.78 145.677 528.21 121.317 535.09C125.647 535.86 129.977 536.64 134.297 537.44C125.527 544.47 113.947 546.85 103.117 550.15C77.3771 557.99 53.6371 572.32 35.0471 591.23C29.7471 596.61 24.7471 602.45 18.2071 606.27C11.9971 609.9 4.82712 611.48 -1.98288 613.84C-18.1729 619.45 -29.2329 630.13 -42.4929 640.25C-56.6929 651.09 -72.3329 660.06 -88.8629 666.83C-88.5529 663.8 -88.2429 660.78 -87.9429 657.75C-94.6829 656.1 -100.523 662.17 -105.583 666.91C-116.073 676.75 -129.503 682.89 -140.553 692.1C-141.973 693.29 -143.473 694.75 -143.513 696.6C-143.543 697.98 -142.753 699.24 -142.553 700.6C-142.043 704.14 -145.463 706.87 -148.483 708.78C-159.103 715.51 -169.713 722.24 -180.333 728.96C-180.843 694.4 -181.353 659.84 -181.863 625.27C-182.003 616.02 -182.133 606.71 -180.443 597.61C-178.873 589.17 -175.733 580.93 -175.753 572.35C-175.763 567.95 -176.403 562.93 -173.393 559.72C-171.623 557.83 -168.983 557.08 -166.473 556.45C-147.853 551.78 -128.623 549.53 -109.423 549.78C-107.383 549.81 -105.043 550 -103.803 551.62C-101.733 554.31 -104.243 558.76 -102.123 561.4C-101.343 562.38 -100.093 562.84 -98.8929 563.19C-89.3729 565.93 -81.3129 563.48 -74.6729 558.44Z" fill="url(#paint22_linear)" stroke="#000D37" stroke-miterlimit="10"/>
<path d="M226.017 518.99C235.557 519.59 244.247 514.01 252.767 509.61C278.977 496.06 309.187 492.39 337.437 483.72C339.427 483.11 341.537 482.39 342.827 480.81C305.837 484.24 269.187 492.89 234.577 506.36C227.517 509.11 226.747 512.34 226.017 518.99Z" fill="url(#paint23_linear)" stroke="#000D37" stroke-miterlimit="10"/>
<path d="M890.697 103.23C886.567 108.14 883.847 113.68 884.577 117.9C884.807 119.23 885.557 120.49 885.677 121.82C885.847 123.77 884.667 125.58 883.517 127.26C875.137 139.52 866.867 151.82 858.707 164.16C856.757 167.11 854.527 170.27 850.757 171.4C848.587 172.05 846.127 171.93 844.037 172.75C841.527 173.74 840.017 175.88 838.647 177.91C832.467 187.09 826.347 196.29 820.297 205.52C819.127 207.3 817.927 209.21 818.067 211.27C818.177 212.96 819.197 214.54 819.317 216.23C819.487 218.6 817.907 220.74 816.397 222.69C793.307 252.6 773.487 282.19 756.707 315.04C752.307 323.65 747.467 332.84 738.417 337.54C752.347 277.16 798.437 223.44 799.197 161.89C799.257 151.35 797.927 140.42 802.387 130.61C806.717 121.1 816.297 113.44 818.557 103.43C819.807 97.8699 818.627 92.1199 817.907 86.4599C815.577 68.0899 818.337 49.3699 826.227 32.1999C827.847 28.6799 829.997 24.9399 834.227 23.3299C836.877 22.3199 839.957 22.3099 842.927 22.3299C856.857 21.3599 983.967 21.9599 984.717 28.5399C984.917 30.1799 983.557 31.5699 982.267 32.7899C974.657 39.9699 967.107 47.1799 959.607 54.4199C952.797 61.0099 945.597 67.8699 935.627 70.9199C934.017 71.4099 932.287 71.8299 931.057 72.7899C930.087 73.5499 929.507 74.5799 928.957 75.5799C927.147 78.8599 925.357 82.1399 923.557 85.4199C921.997 88.2799 920.297 91.2699 917.137 93.0099C913.977 94.7399 908.877 94.5699 906.827 91.8199C901.617 93.0799 895.277 97.7699 890.697 103.23Z" fill="url(#paint24_linear)" stroke="#000D37" stroke-miterlimit="10"/>
<path d="M771.507 469.53C805.807 438.22 843.927 410.08 885.347 385.83C910.417 371.17 932.377 352.39 956.927 336.52C968.067 329.32 979.857 323.5 991.917 317.56C1000.5 313.32 1013.89 310.3 1020.65 303.88C1024.97 299.78 1026.47 293.86 1030.32 289.39C1033.69 285.48 1038.64 282.92 1043.5 280.48C1058.79 272.8 1074.28 265.33 1089.98 258.09C1092.39 256.98 1095.19 255.91 1097.97 255.43C1101.81 254.77 1104.44 258.97 1101.76 261.38C1098.9 263.96 1096.43 266.87 1094.42 270.02C1092.93 272.37 1095.01 275.41 1098.13 275.38C1127.42 275.13 1156.71 249.58 1170.88 230.43C1174.38 225.67 1176.61 220.18 1180.66 215.76C1184.24 211.86 1189.09 208.97 1193.99 206.29C1217.33 193.58 1238.92 190.55 1267.04 186.53C1286.15 183.81 1304.63 178.84 1321.73 171.77C1317.37 170.62 1315.87 165.5 1317.87 162.35C1319.87 159.2 1324.03 157.58 1327.94 156.09C1364.27 142.32 1485.02 86.4401 1527.48 83.7701C1567.68 81.2301 1523.23 124.94 1554.92 150.66C1556.35 151.82 1557.71 153.03 1558.93 154.33C1577.94 174.63 1553.45 190.83 1551.25 210.51C1549.93 221.8 1555.9 233.55 1559.19 245.11C1562.5 256.68 1562.31 270.15 1552.05 276.45C1547.28 279.39 1541.05 280.28 1535.57 282.27C1526.59 285.54 1519.75 291.68 1511.33 295.73C1485.04 308.35 1446.34 300.24 1416.56 299.49C1411.78 299.35 1405.17 297.72 1405.18 293.58C1411.86 292.32 1418.19 290.03 1423.79 286.85C1424.48 286.46 1425.05 285.89 1425.28 285.19C1426.17 282.53 1422.06 280.82 1418.98 280.47C1408.96 279.32 1399.09 280.53 1389.4 281.79C1372.73 283.96 1356.15 286.31 1339.67 288.84C1332.7 289.9 1324 293.38 1325.93 299.52C1327.45 304.37 1335.37 309.05 1331.96 312.73C1327.76 317.25 1310.01 317.08 1303.82 317.88C1291.73 319.38 1279.5 320.32 1267.15 319.24C1256.84 318.34 1246.55 316.07 1236.29 316.31C1225.66 316.56 1215.58 319.49 1205.72 322.45C1200.81 323.92 1195.83 325.46 1191.8 328.26C1189.24 330.04 1187.14 332.28 1184.84 334.31C1174.6 343.38 1160.7 348.26 1147.3 353.07C1133.85 357.88 1119.5 362.9 1105.14 360.07C1099.75 359.01 1094.56 356.86 1089.08 356.5C1076.41 355.68 1065.39 364.51 1052.83 364.42C1046 364.38 1039.37 361.69 1032.54 361.51C1023.7 361.28 1015.6 365.23 1008.03 369.13C984.237 381.39 961.997 395.66 936.757 404.52C908.117 414.51 877.247 418.73 850.327 431.72C824.157 444.34 799.687 464.12 771.507 469.53Z" fill="url(#paint25_linear)" stroke="#000D37" stroke-miterlimit="10"/>
<path d="M1222.6 371.05C1185.46 377.1 1148.92 384.77 1111.77 387.72C1088.29 389.56 1062.38 390.42 1045.88 405.4C1084.86 400.95 1124.25 397.55 1164.04 395.26C1191.45 393.68 1219.2 392.62 1246.94 395.67C1263.98 397.54 1280.9 400.94 1298 402.37C1317.02 403.95 1336.13 403.06 1355.27 404.94C1381.9 407.55 1408.36 415.61 1432.06 428.34C1434.73 429.77 1437.68 431.33 1440.61 430.9C1443.89 430.41 1471.45 418.03 1527.54 428.15C1565.6 435.01 1544.9 374.77 1537.12 363.11C1528.42 350.1 1413.96 354.4 1400.04 354.96C1339.6 356.2 1280.27 361.66 1222.6 371.05Z" fill="url(#paint26_linear)" stroke="#000D37" stroke-miterlimit="10"/>
<path d="M1058.5 441.29C1072.61 442.43 1089.5 438.94 1101.6 438.41C1122.85 437.47 1144.22 437.07 1165.68 437.54C1207.61 438.46 1249.98 442.73 1291.39 452.72C1309.85 457.18 1324.07 460.39 1342.69 457.56C1360.97 454.79 1379.03 450.73 1396.63 445.38C1401.34 443.95 1406.72 441.67 1407.28 437.09C1389.65 432.82 1372 428.77 1354.35 424.94C1331.22 419.91 1306.45 415.38 1285.16 423.13C1300.1 431.55 1319.23 425.54 1335.98 430.33C1338 430.9 1321.6 439.85 1319.52 440.25C1311.01 441.8 1301.64 440.51 1293.07 439.21C1273.7 436.27 1254.9 430.51 1235.66 427.18C1234.18 426.92 1232.49 426.72 1231.37 427.58C1230.64 428.15 1230.33 429.06 1229.67 429.69C1228.64 430.69 1226.99 430.85 1225.47 430.94C1212.16 431.68 1198.71 430.79 1185.56 428.29C1188.63 426.35 1191.41 424.04 1193.83 421.43C1157.52 411.07 1121.09 428.56 1085.65 430.54C1071.63 431.32 1056.26 430.29 1045.15 438.09C1049.11 439.94 1053.65 440.89 1058.5 441.29Z" fill="url(#paint27_linear)" stroke="#000D37" stroke-miterlimit="10"/>
<path d="M1368.84 479.26C1359.12 478.41 1350.19 472.62 1340.16 471.22C1338.34 470.97 1336.43 470.77 1334.76 471.38C1333.09 472 1331.8 473.69 1332.34 475.34C1332.81 476.75 1334.36 477.59 1335.77 478.26C1348.77 484.41 1362.7 488.77 1375.96 494.48C1380.49 496.43 1385.11 498.43 1390 499C1399.43 500.09 1410.4 492.48 1403.83 483.23C1396.33 472.73 1378.73 480.11 1368.84 479.26Z" fill="url(#paint28_linear)" stroke="#000D37" stroke-miterlimit="10"/>
<path d="M1332.32 127.93C1287.8 150.14 1241.26 169.5 1193.55 186.04C1189.54 187.43 1186.09 182.63 1189.59 180.5C1211.32 167.27 1235.66 151.98 1261.53 144.11C1264.32 143.26 1267.17 142.51 1269.91 141.56C1276.22 139.37 1281.86 136.19 1287.48 133.04C1289.69 131.8 1292.01 130.45 1292.92 128.34C1293.48 127.03 1293.43 125.55 1293.72 124.16C1295.39 116.13 1313.4 106.39 1321.58 103.16C1338.7 96.2699 1368.61 98.8599 1386.64 107.53C1380.86 111.28 1371.2 111.8 1363.97 114.04C1352.63 117.55 1342.48 122.87 1332.32 127.93Z" fill="url(#paint29_linear)" stroke="#000D37" stroke-miterlimit="10"/>
<path d="M1179.06 193.23C1178.1 191.03 1175.4 189.37 1172.68 189.32C1167.37 196.94 1153.85 198.87 1150.38 207.32C1158.91 205.05 1167.19 202.19 1175.11 198.78C1177.62 197.7 1180.46 195.37 1178.75 193.28" fill="url(#paint30_linear)"/>
<path d="M1179.06 193.23C1178.1 191.03 1175.4 189.37 1172.68 189.32C1167.37 196.94 1153.85 198.87 1150.38 207.32C1158.91 205.05 1167.19 202.19 1175.11 198.78C1177.62 197.7 1180.46 195.37 1178.75 193.28" stroke="#000D37" stroke-miterlimit="10"/>
<path d="M1236.35 141.23C1246.81 138.42 1255.98 132.92 1262.25 125.6C1263.12 124.59 1263.92 123.16 1262.93 122.07C1261.76 120.79 1259.44 121.3 1257.84 121.97C1239.34 129.73 1221.88 138.9 1205.68 149.31C1202.75 151.19 1199.71 153.3 1198.79 156.35C1214.55 151.36 1229.6 144.95 1243.56 137.25C1241.16 138.57 1238.75 139.9 1236.35 141.23Z" fill="url(#paint31_linear)" stroke="#000D37" stroke-miterlimit="10"/>
<path d="M1263.37 104.04C1259.24 104.56 1255.32 105.72 1251.84 107.44C1250.64 108.03 1249.39 108.8 1249.64 110.21C1249.85 111.39 1251.1 112.32 1252.52 112.63C1255.05 113.17 1257.19 112.09 1259.13 111.05C1261.41 109.83 1263.69 108.61 1265.98 107.4C1267.45 106.62 1265.87 104.59 1264.35 105.31C1264.34 105.32 1264.32 105.32 1264.31 105.33C1264 104.9 1263.68 104.47 1263.37 104.04Z" fill="url(#paint32_linear)" stroke="#000D37" stroke-miterlimit="10"/>
<path d="M1030.59 401.36C1024.88 404.11 1018.31 404.86 1012.04 406.26C1005.77 407.66 999.336 410.01 995.656 414.88C1011.41 415.67 1027.34 410.87 1039.5 401.62C1043.23 398.78 1047.02 396.5 1051.43 394.72C1046.07 388.6 1035.87 398.8 1030.59 401.36Z" fill="url(#paint33_linear)" stroke="#000D37" stroke-miterlimit="10"/>
<path d="M917.847 325.62C934.407 311.42 954.597 300.95 972.177 287.57C986.537 276.62 999.527 262.8 1004.51 246.76C1005.34 244.08 1001.15 242.29 999.317 244.54C996.637 247.81 993.977 251.09 991.317 254.38C987.877 258.62 984.017 263.15 978.247 264.48C976.097 264.97 973.817 264.98 971.707 265.58C968.877 266.37 966.587 268.14 964.387 269.87C956.207 276.29 948.097 282.76 940.047 289.27C938.047 290.89 935.997 292.57 934.857 294.76C934.097 296.23 933.777 297.85 933.137 299.37C931.477 303.3 927.797 306.2 924.267 308.96C916.687 314.87 909.147 320.82 901.687 326.8C895.807 331.53 896.507 334.79 904.077 334.35C909.047 334.06 914.497 328.48 917.847 325.62Z" fill="url(#paint34_linear)" stroke="#000D37" stroke-miterlimit="10"/>
<path d="M687.267 86.1599C687.257 83.2899 688.087 79.5599 691.567 79.1299C695.467 82.1599 693.947 87.3599 692.837 91.6599C691.687 96.1099 691.307 100.7 691.687 105.24C691.927 108.17 691.827 110.19 688.477 110.97C684.947 104.2 687.287 93.5299 687.267 86.1599Z" fill="url(#paint35_linear)" stroke="#000D37" stroke-miterlimit="10"/>
<path d="M715.197 25.6903C712.857 29.8803 712.657 34.6103 712.347 39.2003C710.897 60.4503 706.457 81.4703 702.147 102.44C698.807 118.7 695.537 134.96 692.327 151.24C698.257 134.46 704.317 117.7 710.497 100.96C713.647 92.4303 716.867 83.7703 717.107 74.8503C717.337 66.6003 715.387 57.1803 722.277 51.1103C721.037 51.6703 722.427 53.4003 723.817 53.1603C725.207 52.9203 725.967 51.7303 726.507 50.6703C730.447 42.9603 733.337 34.8903 735.097 26.6603C735.517 24.7103 735.847 22.6203 734.777 20.8203C730.297 13.2803 717.617 21.3203 715.197 25.6903Z" fill="url(#paint36_linear)" stroke="#000D37" stroke-miterlimit="10"/>
<path d="M803.887 50.4599C803.527 54.2899 803.937 58.1599 803.827 62.0099C803.577 70.7399 800.727 79.2199 797.927 87.6099C793.777 100.03 789.687 112.47 785.647 124.91C782.147 135.71 778.677 146.51 775.257 157.32C774.667 159.17 772.437 161.47 770.787 160.13C774.067 144.16 777.397 128.19 780.777 112.23C781.287 109.81 781.807 107.3 781.057 104.9C780.457 102.97 779.067 101.25 778.337 99.3499C777.067 96.0299 777.887 92.4699 778.727 89.0799C780.027 83.8199 781.337 78.5599 782.647 73.3099C783.367 70.4199 784.087 67.4199 783.217 64.5399C782.397 61.8199 780.237 59.5099 778.537 57.0699C770.847 46.0399 772.647 32.5599 774.757 20.1099C781.027 19.9899 815.277 17.1299 817.717 21.8399C818.807 23.9399 810.177 33.1299 808.917 35.4999C806.337 40.2199 804.287 45.2499 803.887 50.4599Z" fill="url(#paint37_linear)" stroke="#000D37" stroke-miterlimit="10"/>
<path d="M1446.1 555.43C1449.03 558.67 1445.37 562.97 1440.37 562.15C1425.23 559.68 1411.47 550.89 1397.97 544.02C1377.25 533.48 1353.75 526.78 1330.5 520.16C1319.98 517.17 1309.44 514.17 1298.74 511.61C1296.19 511 1293.83 512.95 1294.87 514.85C1294.89 514.89 1294.92 514.93 1294.94 514.97C1296.68 518.2 1292.79 521.51 1288.42 520.58C1264.54 515.47 1241.14 508.95 1218.5 501.11C1207.21 497.2 1159.92 480.29 1147.82 478.37C1142.77 477.57 1137.16 477.23 1133.35 480.94C1131.07 485.14 1134.15 486.94 1137.04 488.46C1147.98 494.23 1195.69 511.81 1207.85 515.85C1209.59 516.43 1211.41 517.06 1213.16 517.78C1218.63 520.05 1217.11 526.37 1210.98 526.89C1206.87 527.24 1205.51 531.37 1208.95 533.18C1214.85 536.29 1221.68 538.51 1228.3 540.68C1269.01 554.04 1308.7 569.27 1347.12 586.26C1351.74 588.3 1356.4 590.41 1360.76 592.79C1365.84 595.56 1362.58 601.68 1356.48 600.88L1305.58 586.22C1297.5 585.16 1292.39 592.75 1298.27 597.19C1298.31 597.22 1298.36 597.26 1298.4 597.29C1302.82 600.58 1308.57 602.53 1314.21 604.39C1332.35 610.35 1350.68 623.96 1369.18 629.2C1388.89 634.78 1409.76 640.01 1430.37 639.23C1437.59 638.95 1442.47 633.5 1440.11 628.2C1440.09 628.15 1440.06 628.09 1440.04 628.04C1438.82 625.36 1441.75 622.69 1445.38 623.14C1454.83 624.31 1464.03 626.78 1472.38 630.43C1477.7 632.76 1483.07 636.56 1484.99 640.74C1487.8 646.86 1493.57 651.93 1500.67 655.44C1526 667.99 1553.28 678.17 1581.7 685.69C1584 686.3 1586.63 686.89 1588.53 684.59C1589.16 683.82 1589.48 682.92 1589.58 682.01C1591.94 660.49 1594.31 638.96 1596.67 617.44C1598.35 602.17 1599.94 593.02 1581.5 584.94C1560.09 575.56 1535.88 568.72 1512.62 562.77C1500.77 559.74 1488.79 557.05 1476.69 554.71C1473.05 554.01 1459.14 552.93 1449.52 551.41C1446.52 550.95 1444.35 553.5 1446.1 555.43Z" fill="#000D37" stroke="#000D37" stroke-miterlimit="10"/>
<path d="M960.017 81.2997C955.097 83.3797 949.487 84.3797 944.737 86.6997C939.967 89.0297 936.317 92.5797 932.837 96.0997C902.797 126.47 878.187 160.31 859.217 196.29C872.487 180.32 886.007 164.46 899.777 148.71C908.947 138.23 918.287 127.73 929.777 118.92C944.657 107.51 962.747 99.2897 978.867 88.9997C984.297 85.5297 989.627 81.6997 992.657 76.6097C995.937 71.1197 993.937 66.1797 992.917 60.8997C992.457 58.4997 989.677 57.3397 987.677 58.7497C977.857 65.7497 971.997 76.2397 960.017 81.2997Z" fill="url(#paint38_linear)" stroke="#000D37" stroke-miterlimit="10"/>
<path d="M853.157 205.66C848.337 209.97 844.187 214.82 840.837 220.06C841.397 221.24 843.157 221.7 844.567 221.38C845.977 221.06 847.077 220.16 848.077 219.26C852.477 215.3 856.107 210.69 858.737 205.68C856.877 204.37 853.667 205.04 852.787 206.92" fill="url(#paint39_linear)"/>
<path d="M853.157 205.66C848.337 209.97 844.187 214.82 840.837 220.06C841.397 221.24 843.157 221.7 844.567 221.38C845.977 221.06 847.077 220.16 848.077 219.26C852.477 215.3 856.107 210.69 858.737 205.68C856.877 204.37 853.667 205.04 852.787 206.92" stroke="#000D37" stroke-miterlimit="10"/>
<path d="M1422.25 462.7C1418.77 462.35 1415.03 462.08 1411.99 463.8C1410.7 465.83 1413.13 468.15 1415.25 469.27C1423.78 473.8 1432.85 477.31 1442.2 479.72C1446.77 480.9 1452.36 482.78 1453.03 487.45C1449.71 487.82 1446.48 488.98 1443.69 490.81C1445.16 493.73 1448.64 494.91 1451.77 495.87C1469.58 501.3 1486.94 508.19 1503.62 516.46C1504.5 516.9 1505.46 517.41 1505.83 518.32C1506.48 519.88 1505.11 521.57 1505.24 523.25C1505.37 525.03 1507.07 526.22 1508.62 527.09C1513.72 529.97 1519.11 532.34 1524.67 534.15C1528.69 520.91 1530.15 506.44 1528.21 492.7C1526.47 480.32 1516.83 481.04 1505.91 478.09C1478.5 470.71 1450.49 465.55 1422.25 462.7Z" fill="url(#paint40_linear)" stroke="#000D37" stroke-miterlimit="10"/>
<path d="M1356.76 82.2404C1355.32 83.2704 1353.75 84.4904 1354 86.5304C1354.17 87.9404 1355.23 89.0704 1356.55 89.5804C1359.19 90.5904 1361.81 89.4904 1364.25 88.4304L1396.07 74.5104C1397.36 73.9404 1398.9 74.0504 1400 74.9304C1403.25 77.5204 1397.68 82.5104 1404.89 84.5104C1407.31 85.1804 1409.87 85.1504 1412.31 84.5404L1458.14 73.2004C1459.15 72.9504 1460.31 72.7304 1461.15 73.3404C1462.11 74.0404 1462.15 75.4204 1462.58 76.5304C1464.06 80.3304 1469.48 80.0204 1473.44 79.0204C1487.04 75.5904 1500.64 72.1504 1514.12 68.2904C1520.41 66.4904 1526.89 64.4804 1531.77 60.1204C1535.93 56.4004 1538.58 51.2504 1540.25 45.9204C1544.02 33.8404 1542.7 19.6604 1534.58 9.95037C1533.11 8.19037 1531.29 6.52037 1529.03 6.14037C1527.02 5.81037 1525.01 6.55037 1523.11 7.29037C1497.78 17.1204 1472.72 27.6304 1447.95 38.8004C1447.17 39.1504 1446.35 39.5304 1445.82 40.2104C1444.1 42.4004 1446.5 45.7404 1448.72 46.9904C1449.51 47.4404 1450.28 47.9304 1450.9 48.5904C1455.11 52.9904 1451.23 56.5304 1447.79 58.5304C1443.86 60.8104 1439.56 62.7804 1435.02 62.8304C1430.48 62.8804 1425.66 60.6004 1423.89 56.4204C1422.92 54.1204 1423.25 51.3404 1424.49 49.2104C1426 46.6304 1424.25 43.3404 1421.27 43.4604C1416.32 43.6604 1410.94 46.2204 1406.51 48.8704C1389.31 59.1804 1373.03 70.5604 1356.76 82.2404Z" fill="url(#paint41_linear)" stroke="#000D37" stroke-miterlimit="10"/>
</g>
<defs>
<linearGradient id="paint0_linear" x1="220.728" y1="6.04883" x2="220.728" y2="470.36" gradientUnits="userSpaceOnUse">
<stop stop-color="#8C7EFF" stop-opacity="0.83"/>
<stop offset="1" stop-color="#8C7EFF" stop-opacity="0"/>
</linearGradient>
<linearGradient id="paint1_linear" x1="560.501" y1="122.69" x2="560.501" y2="137.17" gradientUnits="userSpaceOnUse">
<stop stop-color="#8C7EFF" stop-opacity="0.83"/>
<stop offset="1" stop-color="#8C7EFF" stop-opacity="0"/>
</linearGradient>
<linearGradient id="paint2_linear" x1="538.577" y1="109.642" x2="538.577" y2="116.015" gradientUnits="userSpaceOnUse">
<stop stop-color="#8C7EFF" stop-opacity="0.83"/>
<stop offset="1" stop-color="#8C7EFF" stop-opacity="0"/>
</linearGradient>
<linearGradient id="paint3_linear" x1="558.693" y1="58.8965" x2="558.693" y2="70.7401" gradientUnits="userSpaceOnUse">
<stop stop-color="#8C7EFF" stop-opacity="0.83"/>
<stop offset="1" stop-color="#8C7EFF" stop-opacity="0"/>
</linearGradient>
<linearGradient id="paint4_linear" x1="570.09" y1="148.5" x2="570.09" y2="170.92" gradientUnits="userSpaceOnUse">
<stop stop-color="#8C7EFF" stop-opacity="0.83"/>
<stop offset="1" stop-color="#8C7EFF" stop-opacity="0"/>
</linearGradient>
<linearGradient id="paint5_linear" x1="548.265" y1="132.99" x2="548.265" y2="148.71" gradientUnits="userSpaceOnUse">
<stop stop-color="#8C7EFF" stop-opacity="0.83"/>
<stop offset="1" stop-color="#8C7EFF" stop-opacity="0"/>
</linearGradient>
<linearGradient id="paint6_linear" x1="614.095" y1="18.5176" x2="614.095" y2="407.11" gradientUnits="userSpaceOnUse">
<stop stop-color="#8C7EFF" stop-opacity="0.83"/>
<stop offset="1" stop-color="#8C7EFF" stop-opacity="0"/>
</linearGradient>
<linearGradient id="paint7_linear" x1="636.287" y1="33.9346" x2="636.287" y2="116.71" gradientUnits="userSpaceOnUse">
<stop stop-color="#8C7EFF" stop-opacity="0.83"/>
<stop offset="1" stop-color="#8C7EFF" stop-opacity="0"/>
</linearGradient>
<linearGradient id="paint8_linear" x1="646.627" y1="67.0098" x2="646.627" y2="80.6935" gradientUnits="userSpaceOnUse">
<stop stop-color="#8C7EFF" stop-opacity="0.83"/>
<stop offset="1" stop-color="#8C7EFF" stop-opacity="0"/>
</linearGradient>
<linearGradient id="paint9_linear" x1="173.374" y1="218.505" x2="173.374" y2="316.487" gradientUnits="userSpaceOnUse">
<stop stop-color="#8C7EFF" stop-opacity="0.83"/>
<stop offset="1" stop-color="#8C7EFF" stop-opacity="0"/>
</linearGradient>
<linearGradient id="paint10_linear" x1="144.917" y1="328.14" x2="144.917" y2="477.3" gradientUnits="userSpaceOnUse">
<stop stop-color="#8C7EFF" stop-opacity="0.83"/>
<stop offset="1" stop-color="#8C7EFF" stop-opacity="0"/>
</linearGradient>
<linearGradient id="paint11_linear" x1="26.0416" y1="205.727" x2="26.0416" y2="231.092" gradientUnits="userSpaceOnUse">
<stop stop-color="#8C7EFF" stop-opacity="0.83"/>
<stop offset="1" stop-color="#8C7EFF" stop-opacity="0"/>
</linearGradient>
<linearGradient id="paint12_linear" x1="-19.2315" y1="132.097" x2="-19.2315" y2="200.11" gradientUnits="userSpaceOnUse">
<stop stop-color="#8C7EFF" stop-opacity="0.83"/>
<stop offset="1" stop-color="#8C7EFF" stop-opacity="0"/>
</linearGradient>
<linearGradient id="paint13_linear" x1="51.144" y1="211.768" x2="51.144" y2="223.27" gradientUnits="userSpaceOnUse">
<stop stop-color="#8C7EFF" stop-opacity="0.83"/>
<stop offset="1" stop-color="#8C7EFF" stop-opacity="0"/>
</linearGradient>
<linearGradient id="paint14_linear" x1="273.801" y1="45.5059" x2="273.801" y2="128.85" gradientUnits="userSpaceOnUse">
<stop stop-color="#8C7EFF" stop-opacity="0.83"/>
<stop offset="1" stop-color="#8C7EFF" stop-opacity="0"/>
</linearGradient>
<linearGradient id="paint15_linear" x1="334.495" y1="141.773" x2="334.495" y2="160.592" gradientUnits="userSpaceOnUse">
<stop stop-color="#8C7EFF" stop-opacity="0.83"/>
<stop offset="1" stop-color="#8C7EFF" stop-opacity="0"/>
</linearGradient>
<linearGradient id="paint16_linear" x1="300.072" y1="62.8398" x2="300.072" y2="94.3098" gradientUnits="userSpaceOnUse">
<stop stop-color="#8C7EFF" stop-opacity="0.83"/>
<stop offset="1" stop-color="#8C7EFF" stop-opacity="0"/>
</linearGradient>
<linearGradient id="paint17_linear" x1="317.933" y1="395.302" x2="317.933" y2="413.562" gradientUnits="userSpaceOnUse">
<stop stop-color="#8C7EFF" stop-opacity="0.83"/>
<stop offset="1" stop-color="#8C7EFF" stop-opacity="0"/>
</linearGradient>
<linearGradient id="paint18_linear" x1="1031.47" y1="5.78223" x2="1031.47" y2="459.692" gradientUnits="userSpaceOnUse">
<stop stop-color="#8C7EFF" stop-opacity="0.83"/>
<stop offset="1" stop-color="#8C7EFF" stop-opacity="0"/>
</linearGradient>
<linearGradient id="paint19_linear" x1="-12.82" y1="468.329" x2="-12.82" y2="491.813" gradientUnits="userSpaceOnUse">
<stop stop-color="#8C7EFF" stop-opacity="0.83"/>
<stop offset="1" stop-color="#8C7EFF" stop-opacity="0"/>
</linearGradient>
<linearGradient id="paint20_linear" x1="81.7645" y1="480.609" x2="81.7645" y2="492.95" gradientUnits="userSpaceOnUse">
<stop stop-color="#8C7EFF" stop-opacity="0.83"/>
<stop offset="1" stop-color="#8C7EFF" stop-opacity="0"/>
</linearGradient>
<linearGradient id="paint21_linear" x1="125.425" y1="476.911" x2="125.425" y2="490.36" gradientUnits="userSpaceOnUse">
<stop stop-color="#8C7EFF" stop-opacity="0.83"/>
<stop offset="1" stop-color="#8C7EFF" stop-opacity="0"/>
</linearGradient>
<linearGradient id="paint22_linear" x1="36.2243" y1="483.94" x2="36.2243" y2="728.96" gradientUnits="userSpaceOnUse">
<stop stop-color="#8C7EFF" stop-opacity="0.83"/>
<stop offset="1" stop-color="#8C7EFF" stop-opacity="0"/>
</linearGradient>
<linearGradient id="paint23_linear" x1="284.422" y1="480.81" x2="284.422" y2="519.035" gradientUnits="userSpaceOnUse">
<stop stop-color="#8C7EFF" stop-opacity="0.83"/>
<stop offset="1" stop-color="#8C7EFF" stop-opacity="0"/>
</linearGradient>
<linearGradient id="paint24_linear" x1="861.577" y1="21.9634" x2="861.577" y2="337.54" gradientUnits="userSpaceOnUse">
<stop stop-color="#8C7EFF" stop-opacity="0.83"/>
<stop offset="1" stop-color="#8C7EFF" stop-opacity="0"/>
</linearGradient>
<linearGradient id="paint25_linear" x1="1168.81" y1="83.6641" x2="1168.81" y2="469.53" gradientUnits="userSpaceOnUse">
<stop stop-color="#83B3FD"/>
<stop offset="1" stop-color="#8C7EFF" stop-opacity="0"/>
</linearGradient>
<linearGradient id="paint26_linear" x1="1297.82" y1="353.835" x2="1297.82" y2="430.973" gradientUnits="userSpaceOnUse">
<stop stop-color="#8C7EFF" stop-opacity="0.83"/>
<stop offset="1" stop-color="#8C7EFF" stop-opacity="0"/>
</linearGradient>
<linearGradient id="paint27_linear" x1="1226.21" y1="418.173" x2="1226.21" y2="458.627" gradientUnits="userSpaceOnUse">
<stop stop-color="#8C7EFF" stop-opacity="0.83"/>
<stop offset="1" stop-color="#8C7EFF" stop-opacity="0"/>
</linearGradient>
<linearGradient id="paint28_linear" x1="1369.02" y1="470.978" x2="1369.02" y2="499.104" gradientUnits="userSpaceOnUse">
<stop stop-color="#8C7EFF" stop-opacity="0.83"/>
<stop offset="1" stop-color="#8C7EFF" stop-opacity="0"/>
</linearGradient>
<linearGradient id="paint29_linear" x1="1287.39" y1="99.2227" x2="1287.39" y2="186.288" gradientUnits="userSpaceOnUse">
<stop stop-color="#8C7EFF" stop-opacity="0.83"/>
<stop offset="1" stop-color="#8C7EFF" stop-opacity="0"/>
</linearGradient>
<linearGradient id="paint30_linear" x1="1164.82" y1="189.32" x2="1164.82" y2="207.32" gradientUnits="userSpaceOnUse">
<stop stop-color="#8C7EFF" stop-opacity="0.83"/>
<stop offset="1" stop-color="#8C7EFF" stop-opacity="0"/>
</linearGradient>
<linearGradient id="paint31_linear" x1="1231.09" y1="121.281" x2="1231.09" y2="156.35" gradientUnits="userSpaceOnUse">
<stop stop-color="#8C7EFF" stop-opacity="0.83"/>
<stop offset="1" stop-color="#8C7EFF" stop-opacity="0"/>
</linearGradient>
<linearGradient id="paint32_linear" x1="1258.08" y1="104.04" x2="1258.08" y2="112.774" gradientUnits="userSpaceOnUse">
<stop stop-color="#8C7EFF" stop-opacity="0.83"/>
<stop offset="1" stop-color="#8C7EFF" stop-opacity="0"/>
</linearGradient>
<linearGradient id="paint33_linear" x1="1023.54" y1="392.795" x2="1023.54" y2="414.964" gradientUnits="userSpaceOnUse">
<stop stop-color="#8C7EFF" stop-opacity="0.83"/>
<stop offset="1" stop-color="#8C7EFF" stop-opacity="0"/>
</linearGradient>
<linearGradient id="paint34_linear" x1="951.193" y1="243.518" x2="951.193" y2="334.389" gradientUnits="userSpaceOnUse">
<stop stop-color="#8C7EFF" stop-opacity="0.83"/>
<stop offset="1" stop-color="#8C7EFF" stop-opacity="0"/>
</linearGradient>
<linearGradient id="paint35_linear" x1="690.304" y1="79.1299" x2="690.304" y2="110.97" gradientUnits="userSpaceOnUse">
<stop stop-color="#8C7EFF" stop-opacity="0.83"/>
<stop offset="1" stop-color="#8C7EFF" stop-opacity="0"/>
</linearGradient>
<linearGradient id="paint36_linear" x1="713.912" y1="17.7207" x2="713.912" y2="151.24" gradientUnits="userSpaceOnUse">
<stop stop-color="#8C7EFF" stop-opacity="0.83"/>
<stop offset="1" stop-color="#8C7EFF" stop-opacity="0"/>
</linearGradient>
<linearGradient id="paint37_linear" x1="794.3" y1="19.1406" x2="794.3" y2="160.53" gradientUnits="userSpaceOnUse">
<stop stop-color="#8C7EFF" stop-opacity="0.83"/>
<stop offset="1" stop-color="#8C7EFF" stop-opacity="0"/>
</linearGradient>
<linearGradient id="paint38_linear" x1="926.838" y1="58.1387" x2="926.838" y2="196.29" gradientUnits="userSpaceOnUse">
<stop stop-color="#8C7EFF" stop-opacity="0.83"/>
<stop offset="1" stop-color="#8C7EFF" stop-opacity="0"/>
</linearGradient>
<linearGradient id="paint39_linear" x1="849.787" y1="204.999" x2="849.787" y2="221.479" gradientUnits="userSpaceOnUse">
<stop stop-color="#8C7EFF" stop-opacity="0.83"/>
<stop offset="1" stop-color="#8C7EFF" stop-opacity="0"/>
</linearGradient>
<linearGradient id="paint40_linear" x1="1470.34" y1="462.44" x2="1470.34" y2="534.15" gradientUnits="userSpaceOnUse">
<stop stop-color="#8C7EFF" stop-opacity="0.83"/>
<stop offset="1" stop-color="#8C7EFF" stop-opacity="0"/>
</linearGradient>
<linearGradient id="paint41_linear" x1="1448.12" y1="6.05957" x2="1448.12" y2="89.9797" gradientUnits="userSpaceOnUse">
<stop stop-color="#8C7EFF" stop-opacity="0.83"/>
<stop offset="1" stop-color="#8C7EFF" stop-opacity="0"/>
</linearGradient>
</defs>
</svg>
