<svg width="144" height="215" viewBox="0 0 144 215" fill="none" xmlns="http://www.w3.org/2000/svg">
<circle cx="67" cy="93" r="60" fill="url(#paint0_linear_896_3724)"/>
<path d="M128.607 217.154C125.612 218.696 122.129 218.989 118.919 217.969C115.71 216.949 113.034 214.7 111.478 211.713L80.0664 151.3L102.739 139.654L134.11 199.943C135.662 202.956 135.954 206.461 134.922 209.688C133.89 212.916 131.618 215.601 128.607 217.154Z" fill="#000D37" stroke="#000D37" stroke-width="0.807733" stroke-linecap="round" stroke-linejoin="round"/>
<path d="M134.069 199.943L102.718 139.654L91.5469 145.405L128.648 217.154C130.134 216.38 131.453 215.321 132.53 214.037C133.606 212.753 134.419 211.27 134.923 209.671C135.426 208.073 135.61 206.392 135.463 204.722C135.317 203.053 134.843 201.429 134.069 199.943Z" fill="#5643F2" stroke="#000D37" stroke-width="0.815892" stroke-linecap="round" stroke-linejoin="round"/>
<path d="M64.7105 29.0112C52.113 29.0072 39.7971 32.739 29.3207 39.7349C18.8442 46.7307 10.6777 56.6763 5.85405 68.3137C1.03035 79.9512 -0.233859 92.7577 2.2213 105.114C4.67646 117.47 10.7407 128.82 19.6471 137.729C28.5534 146.639 39.9018 152.706 52.257 155.166C64.6122 157.625 77.4192 156.365 89.0582 151.545C100.697 146.725 110.645 138.562 117.645 128.087C124.644 117.613 128.38 105.299 128.38 92.7011C128.382 84.3382 126.738 76.0567 123.539 68.3296C120.341 60.6025 115.651 53.5812 109.739 47.6668C103.826 41.7524 96.8065 37.0607 89.0804 33.8597C81.3544 30.6588 73.0734 29.0112 64.7105 29.0112ZM64.7105 146.807C54.0086 146.811 43.5458 143.641 34.6455 137.698C25.7452 131.755 18.8071 123.307 14.7089 113.421C10.6106 103.535 9.53619 92.6551 11.6215 82.1583C13.7069 71.6615 18.8583 62.0189 26.4243 54.45C33.9902 46.8812 43.6309 41.7261 54.1269 39.6368C64.6228 37.5474 75.5027 38.6177 85.3904 42.7122C95.2781 46.8067 103.729 53.7415 109.675 62.6396C115.622 71.5376 118.795 81.9992 118.795 92.7011C118.795 107.047 113.098 120.806 102.956 130.952C92.8132 141.098 79.0566 146.801 64.7105 146.807Z" fill="#000D37" stroke="#000D37" stroke-width="0.807733" stroke-linecap="round" stroke-linejoin="round"/>
<path d="M125.66 111.19L116.694 107.665C115.418 112.108 113.575 116.369 111.211 120.341L118.755 126.38C121.708 121.639 124.03 116.532 125.66 111.19Z" fill="#5643F2" stroke="#000D37" stroke-width="0.815892" stroke-linecap="round" stroke-linejoin="round"/>
<path d="M87.1144 164.842C87.1144 164.842 79.282 174.735 87.1144 189.452L43.8301 235.457L74.7063 255.224C74.7063 255.224 92.5971 216.907 111.477 211.692C130.358 206.477 137.407 199.82 140.066 196.13C143.487 191.369 147.486 176.405 135.51 178.384C135.51 178.384 145.569 162.492 129.595 160.513C129.595 160.513 126.936 145.714 111.416 156.391C111.416 156.391 111.416 166.449 99.9967 170.592C88.5779 174.735 87.1144 164.842 87.1144 164.842Z" fill="#147CAE" stroke="#000D37" stroke-width="0.815892" stroke-linecap="round" stroke-linejoin="round"/>
<path d="M52.3027 240.878L111.932 175.622" stroke="#000D37" stroke-width="0.815892" stroke-linecap="round" stroke-linejoin="round"/>
<path d="M140.067 196.151C143.489 191.389 147.487 176.425 135.512 178.404C135.512 178.404 145.57 162.513 129.596 160.534C129.596 160.534 128.236 152.99 121.805 152.557C129.493 154.433 119.62 167.666 114.571 172.963C109.521 178.26 98.0813 187.638 106.326 199.181C114.571 210.723 127.144 205.879 133.574 202.169C136.07 200.553 138.267 198.517 140.067 196.151Z" fill="#5643F2" stroke="#000D37" stroke-width="0.815892" stroke-linecap="round" stroke-linejoin="round"/>
<path d="M129.596 160.534C132.131 166.47 123.227 176.817 123.227 176.817" stroke="#000D37" stroke-width="0.815892" stroke-linecap="round" stroke-linejoin="round"/>
<path d="M135.512 178.404C132.132 184.753 130.05 186.195 130.05 186.195" stroke="#000D37" stroke-width="0.815892" stroke-linecap="round" stroke-linejoin="round"/>
<path d="M118.239 172.921C112.179 179.476 100.451 191.472 112.653 200.685C111.499 195.167 112.001 189.43 114.096 184.196C115.867 180.593 117.256 176.814 118.239 172.921Z" fill="#8C7EFF"/>
<path d="M130.833 190.483L137.47 180.754C137.47 180.754 142.087 181.702 139.531 185.618C136.975 189.534 130.833 190.483 130.833 190.483Z" fill="#8C7EFF"/>
<path d="M125.103 178.404C125.103 178.404 133.924 168.469 132.791 163.976C132.791 163.976 136.913 165.625 135.511 168.614C132.791 174.529 125.103 178.404 125.103 178.404Z" fill="#8C7EFF"/>
<path d="M65.9258 246.629L73.5727 251.575C73.5727 251.575 85.5274 224.925 101.172 214C105.342 210.984 110.128 208.929 115.188 207.982C109.787 208.105 103.872 205.715 100.759 196.769C101.021 199.724 100.665 202.702 99.7138 205.512C98.7628 208.322 97.2378 210.904 95.2355 213.093C88.4749 219.875 65.9258 246.629 65.9258 246.629Z" fill="#83B3FD"/>
<path d="M94.9931 33.3913C94.9664 36.8327 93.5917 40.1264 91.164 42.5657C88.7363 45.005 85.449 46.3954 82.0078 46.4384C85.4384 46.4812 88.7165 47.863 91.1425 50.289C93.5686 52.715 94.9504 55.9931 94.9931 59.4237C95.0359 55.9931 96.4177 52.715 98.8437 50.289C101.27 47.863 104.548 46.4812 107.978 46.4384C104.537 46.3954 101.25 45.005 98.8223 42.5657C96.3946 40.1264 95.0198 36.8327 94.9931 33.3913Z" fill="white" stroke="#000D37" stroke-width="0.815892" stroke-linecap="round" stroke-linejoin="round"/>
<path d="M121.238 1.00001C121.174 6.63759 118.901 12.0251 114.909 16.006C110.917 19.9868 105.523 22.2436 99.8848 22.2918C105.517 22.3561 110.901 24.6221 114.884 28.6051C118.867 32.5881 121.133 37.9717 121.197 43.6042C121.267 37.9734 123.534 32.5928 127.516 28.6109C131.498 24.629 136.879 22.3613 142.51 22.2918C136.888 22.217 131.518 19.9491 127.544 15.9716C123.57 11.9942 121.308 6.62183 121.238 1.00001Z" fill="white" stroke="#000D37" stroke-width="0.815892" stroke-linecap="round" stroke-linejoin="round"/>
<defs>
<linearGradient id="paint0_linear_896_3724" x1="22.6794" y1="62.8955" x2="75.7805" y2="135.857" gradientUnits="userSpaceOnUse">
<stop stop-color="white" stop-opacity="0"/>
<stop offset="0.53125" stop-color="white" stop-opacity="0.74"/>
<stop offset="1" stop-color="white" stop-opacity="0"/>
</linearGradient>
</defs>
</svg>
