<svg width="1440" height="845" viewBox="0 0 1440 845" fill="none" xmlns="http://www.w3.org/2000/svg">
<g clip-path="url(#clip0)">
<path d="M1588.61 73.0975C1362.83 52.2467 1288.44 82.5132 1126.6 296.31C964.755 510.107 952.452 576.219 772.421 561.867C592.389 547.514 508.471 491.344 325.054 561.729C141.637 632.114 -123.91 899.258 -123.91 899.258L-51.5297 986.743L99.8415 952.149L504.365 670.043L1000.39 685.162L1344.6 189.797L1510.15 80.1974L1556.9 164.784L1588.61 73.0975Z" fill="url(#paint0_linear)" stroke="black" stroke-width="1.5" stroke-miterlimit="10"/>
<path d="M89.3937 1108.42C89.8203 1107.8 135.721 1041.97 202.738 968.117C287.381 874.839 366.985 810.809 432.961 782.941C525.344 743.925 609.872 758.42 699.349 773.766C759.862 784.149 822.436 794.872 886.017 787.321C903.131 785.289 919.67 782.007 935.656 777.473C991.682 761.573 1040.98 730.177 1085.34 682.34C1138.86 624.644 1144.24 519.101 1189.32 453.962C1248.53 368.422 1303.68 228.185 1366.72 180.023C1395.75 157.838 1427.9 133.967 1456.99 128.676C1489.81 122.706 1603.65 138.898 1612.41 181.098L1655.71 99.5428C1590.13 76.4381 1526.57 70.2309 1466.8 81.1078C1412.48 90.9822 1362.05 114.137 1312.65 151.889C1229.76 215.219 1164.02 310.219 1100.43 402.081C1058.5 462.661 1015.16 525.305 969.317 574.719C904.372 644.745 844.548 638.09 726.107 617.778C628.243 600.997 506.444 580.096 371.383 637.146C282.682 674.613 186.011 750.73 84.0661 863.384C10.5122 944.654 -38.6342 1015.31 -40.6935 1018.28L89.3937 1108.42Z" fill="#5643F2" stroke="black" stroke-width="1.5" stroke-miterlimit="10"/>
<path d="M1654.99 164.944C1353.2 34.5392 1298.68 212.341 1038.38 627.362C914.588 824.716 606.866 654.294 354.944 760.708C166.871 840.147 49.933 1054.13 49.933 1054.13L158.404 1079.68C158.404 1079.68 215.447 903.732 463.98 869.452C712.524 835.169 846.472 916.536 993.217 818.168C1139.96 719.8 1259.44 173.893 1448.76 141.572C1621.98 112.004 1708.66 306.935 1708.66 306.935L1654.99 164.944Z" fill="#1734E2" stroke="black" stroke-width="1.5" stroke-miterlimit="10"/>
<path d="M1385.77 274.372C1384.45 274.674 1383.13 273.848 1382.83 272.527C1382.53 271.206 1383.35 269.891 1384.67 269.589C1386 269.287 1387.31 270.113 1387.61 271.434C1387.91 272.755 1387.09 274.07 1385.77 274.372Z" fill="#83FFCB"/>
<path d="M659.076 367.188L659.089 367.3C629.322 371.349 608.06 397.947 611.455 427.277C608.066 398.003 581.396 376.999 551.56 379.759L551.545 379.635C581.223 375.506 602.39 348.965 599.001 319.691C602.395 349.01 629.171 370.047 659.076 367.188Z" fill="#A1EDD1"/>
<path d="M592.798 435.528L592.806 435.598C574.06 438.148 560.669 454.89 562.806 473.351C560.673 454.925 543.879 441.706 525.089 443.444L525.08 443.366C543.77 440.766 557.1 424.06 554.967 405.634C557.104 424.088 573.965 437.328 592.798 435.528Z" fill="#A1EDD1"/>
<path d="M614.99 641.793C614.99 641.793 585.678 641.952 550.37 650.021C478.199 666.514 456.206 677.64 456.206 677.64C456.206 677.64 528.764 657.011 567.055 656.563C605.345 656.114 648.084 657.977 648.084 657.977C648.084 657.977 647.042 655.247 646.193 655.186C629.086 653.75 614.99 641.793 614.99 641.793Z" fill="black"/>
<path d="M1575.01 74.4311C1366.12 70.999 1316.4 161.004 1271.93 222.895C1210.83 307.903 1178.69 401.591 1155.23 438.481C966.428 735.247 886.924 681.849 645.319 657.299C340.027 626.276 69.2944 931.456 69.2944 931.456" stroke="black" stroke-width="1.5" stroke-miterlimit="10"/>
<path d="M808.04 675.816C722.154 654.06 695.714 647.15 695.714 647.15L668.066 654.489L653.757 655.811L646.188 655.164L646.705 657.423L808.04 675.816Z" fill="black"/>
<path d="M1155.22 438.483C1120.99 492.282 1090.37 534.554 1061.71 567.6C1061.88 567.318 1100.59 511.392 1119.15 468.7C1148.24 401.801 1160.92 393.917 1234.24 281.913L1229.52 290.299C1194.58 353.083 1172.53 411.254 1155.22 438.483Z" fill="black"/>
<path d="M1127.99 307.113L1096.16 302.976C1096.48 303.02 1096.77 303.057 1097.09 303.112L1128.91 307.249C1128.61 307.191 1128.3 307.157 1127.99 307.113Z" fill="url(#paint1_linear)"/>
<path d="M1097.1 303.11L1128.92 307.247C1128.61 307.202 1128.31 307.155 1128 307.11L1096.18 302.973C1096.47 303.009 1096.79 303.054 1097.1 303.11Z" fill="url(#paint2_linear)" stroke="black" stroke-width="1.5" stroke-miterlimit="10"/>
<path d="M1127.99 307.113L1096.16 302.976C1096.48 303.02 1096.77 303.057 1097.09 303.112L1128.91 307.249C1128.61 307.191 1128.3 307.157 1127.99 307.113Z" stroke="black" stroke-width="1.5" stroke-miterlimit="10"/>
<path d="M1076.74 452.614L1108.57 456.751C1137.26 460.479 1165.01 430.889 1170.81 390.068C1176.68 348.826 1157.93 311.738 1128.91 307.239L1097.09 303.102C1126.11 307.601 1144.86 344.689 1138.99 385.931C1133.18 426.752 1105.44 456.342 1076.74 452.614Z" fill="url(#paint3_linear)"/>
<path d="M1076.74 452.614L1108.57 456.751C1131.72 459.763 1154.25 441.082 1165.14 412.329L1133.31 408.192C1122.42 436.945 1099.89 455.626 1076.74 452.614Z" fill="url(#paint4_linear)" stroke="black" stroke-width="1.5" stroke-miterlimit="10"/>
<path d="M1133.31 408.192L1165.14 412.329C1167.18 406.946 1168.81 401.204 1169.96 395.189L1138.14 391.053C1136.99 397.067 1135.35 402.809 1133.31 408.192Z" fill="url(#paint5_linear)" stroke="black" stroke-width="1.5" stroke-miterlimit="10"/>
<path d="M1138.14 391.052L1169.96 395.189C1170.29 393.504 1170.57 391.804 1170.81 390.068C1171.38 386.029 1171.72 382.032 1171.84 378.097L1140.02 373.96C1139.9 377.895 1139.56 381.892 1138.99 385.931C1138.75 387.667 1138.46 389.367 1138.14 391.052Z" fill="url(#paint6_linear)" stroke="black" stroke-width="1.5" stroke-miterlimit="10"/>
<path d="M1140.02 373.96L1171.84 378.097C1172.05 371.045 1171.54 364.204 1170.4 357.729L1138.58 353.592C1139.72 360.067 1140.23 366.908 1140.02 373.96Z" fill="url(#paint7_linear)" stroke="black" stroke-width="1.5" stroke-miterlimit="10"/>
<path d="M1138.58 353.592L1170.4 357.729C1167.55 341.637 1160.75 327.826 1151.2 318.657L1119.37 314.52C1128.92 323.689 1135.72 337.5 1138.58 353.592Z" fill="url(#paint8_linear)" stroke="black" stroke-width="1.5" stroke-miterlimit="10"/>
<path d="M1119.37 314.52L1151.2 318.657C1147.36 314.976 1143.08 312.048 1138.44 310.012L1106.61 305.875C1111.25 307.911 1115.53 310.841 1119.37 314.52Z" fill="url(#paint9_linear)" stroke="black" stroke-width="1.5" stroke-miterlimit="10"/>
<path d="M1106.6 305.878L1138.43 310.015C1135.4 308.7 1132.23 307.755 1128.91 307.238L1097.09 303.101C1100.4 303.618 1103.59 304.56 1106.6 305.878Z" fill="url(#paint10_linear)" stroke="black" stroke-width="1.5" stroke-miterlimit="10"/>
<path d="M1076.74 452.614L1108.57 456.751C1137.26 460.479 1165.01 430.889 1170.81 390.068C1176.68 348.826 1157.93 311.738 1128.91 307.239L1097.09 303.102C1126.11 307.601 1144.86 344.689 1138.99 385.931C1133.18 426.752 1105.44 456.342 1076.74 452.614Z" stroke="black" stroke-width="1.5" stroke-miterlimit="10"/>
<path d="M1097.1 303.11C1068.08 298.61 1039.8 328.414 1033.93 369.656C1028.06 410.912 1046.81 447.986 1075.83 452.486C1104.85 456.985 1133.13 427.192 1139 385.939C1144.87 344.697 1126.11 307.601 1097.1 303.11Z" fill="url(#paint11_linear)" stroke="black" stroke-width="1.5" stroke-miterlimit="10"/>
<path d="M1078.04 379.138L1078.04 379.127C1081.7 379.067 1084.66 375.746 1084.69 371.636C1084.66 375.735 1087.59 379.09 1091.23 379.208L1091.23 379.23C1087.58 379.301 1084.62 382.62 1084.6 386.73C1084.64 382.592 1081.71 379.24 1078.04 379.138Z" fill="white"/>
<path d="M1079.61 341.615L1089.82 341.671C1091.13 341.684 1092.33 342.523 1092.93 343.859L1115.88 395.479C1116.55 396.984 1115.59 398.769 1114.11 398.758L1102.37 398.693C1101.05 398.682 1099.83 397.824 1099.24 396.463L1093.08 382.276C1092.24 380.345 1092.27 378.077 1093.16 376.17L1097.7 366.355C1098.93 363.684 1097.25 360.475 1094.61 360.462L1074.58 360.379C1071.93 360.369 1070.23 363.565 1071.44 366.244L1076.44 377.29C1076.95 378.436 1076.95 379.804 1076.44 380.964L1069.58 396.308C1068.97 397.664 1067.75 398.511 1066.43 398.501L1054.69 398.435C1053.22 398.424 1052.27 396.634 1052.95 395.134L1076.47 343.77C1077.09 342.436 1078.3 341.613 1079.61 341.615Z" fill="white"/>
<path d="M1000.76 538.463C959.705 580.557 859.059 633.695 775.448 625.751L789.164 627.672C789.164 627.672 845.811 637.778 892.144 625.438C953.932 608.975 1000.76 538.463 1000.76 538.463Z" fill="black"/>
<path d="M886.709 516.162L863.945 531.627C870.671 527.063 878.68 524.155 887.709 523.378L910.474 507.914C901.433 508.693 893.424 511.601 886.709 516.162Z" fill="url(#paint12_linear)"/>
<path d="M893.162 512.484C896.302 511.002 899.668 509.85 903.217 509.039C905.553 508.505 907.96 508.129 910.462 507.916L887.698 523.381C885.206 523.591 882.788 523.969 880.452 524.503C876.901 525.303 873.537 526.466 870.398 527.949L893.162 512.484Z" fill="url(#paint13_linear)" stroke="black" stroke-width="1.5" stroke-miterlimit="10"/>
<path d="M870.398 527.949L893.162 512.484C890.889 513.549 888.736 514.783 886.698 516.165L863.934 531.63C865.972 530.248 868.136 529.011 870.398 527.949Z" fill="url(#paint14_linear)" stroke="black" stroke-width="1.5" stroke-miterlimit="10"/>
<path d="M886.709 516.162L863.945 531.627C870.671 527.063 878.68 524.155 887.709 523.378L910.474 507.914C901.433 508.693 893.424 511.601 886.709 516.162Z" stroke="black" stroke-width="1.5" stroke-miterlimit="10"/>
<path d="M948.672 656.537L971.437 641.072C990.408 628.19 999.132 602.078 991.535 573.248C981.254 534.201 944.954 504.951 910.463 507.917L887.698 523.381C922.19 520.415 958.49 549.666 968.77 588.713C976.368 617.542 967.644 643.655 948.672 656.537Z" fill="url(#paint15_linear)"/>
<path d="M948.672 656.536L971.437 641.072C990.408 628.19 999.132 602.077 991.535 573.247C990.529 569.407 989.254 565.652 987.775 562.024L965.011 577.489C966.503 581.125 967.765 584.872 968.77 588.712C976.368 617.542 967.644 643.655 948.672 656.536Z" fill="url(#paint16_linear)" stroke="black" stroke-width="1.5" stroke-miterlimit="10"/>
<path d="M965.008 577.478L987.773 562.013C986.205 558.197 984.401 554.516 982.367 550.992L959.602 566.457C961.639 569.992 963.443 573.673 965.008 577.478Z" fill="url(#paint17_linear)" stroke="black" stroke-width="1.5" stroke-miterlimit="10"/>
<path d="M970.603 534.78C972.762 537.174 974.822 539.694 976.748 542.339C978.771 545.1 980.651 547.998 982.38 551L959.616 566.465C957.886 563.463 956.009 560.576 953.984 557.803C952.06 555.17 949.997 552.638 947.838 550.244L970.603 534.78Z" fill="url(#paint18_linear)" stroke="black" stroke-width="1.5" stroke-miterlimit="10"/>
<path d="M947.825 550.236L970.589 534.771C968.387 532.341 966.087 530.037 963.679 527.874L940.914 543.339C943.322 545.502 945.634 547.803 947.825 550.236Z" fill="url(#paint19_linear)" stroke="black" stroke-width="1.5" stroke-miterlimit="10"/>
<path d="M910.463 507.916C921.984 506.93 933.709 509.526 944.594 514.889C948.343 516.734 951.995 518.914 955.505 521.382C958.324 523.37 961.058 525.539 963.668 527.877L940.903 543.341C938.291 540.993 935.557 538.823 932.74 536.846C929.231 534.378 925.578 532.198 921.829 530.353C910.944 524.991 899.217 522.383 887.698 523.381L910.463 507.916Z" fill="url(#paint20_linear)" stroke="black" stroke-width="1.5" stroke-miterlimit="10"/>
<path d="M948.672 656.537L971.437 641.072C990.408 628.19 999.132 602.078 991.535 573.248C981.254 534.201 944.954 504.951 910.463 507.917L887.698 523.381C922.19 520.415 958.49 549.666 968.77 588.713C976.368 617.542 967.644 643.655 948.672 656.537Z" stroke="black" stroke-width="1.5" stroke-miterlimit="10"/>
<path d="M887.698 523.381C853.195 526.349 833.555 560.407 843.836 599.453C854.116 638.5 890.416 667.751 924.919 664.782C959.41 661.816 979.05 627.759 968.77 588.712C958.49 549.665 922.201 520.412 887.698 523.381Z" fill="url(#paint21_linear)" stroke="black" stroke-width="1.5" stroke-miterlimit="10"/>
<path d="M898.319 598.872L898.313 598.857C901.788 596.601 902.861 592.01 900.701 588.517C902.861 592.01 907.438 593.089 910.999 590.997L911.005 591.012C907.545 593.262 906.476 597.843 908.637 601.336C906.466 597.838 901.879 596.755 898.319 598.872Z" fill="white"/>
<path d="M879.859 566.153L889.665 560.087C890.927 559.307 892.531 559.305 893.808 560.073L943.243 590.022C944.686 590.89 944.716 592.978 943.296 593.86L932.025 600.849C930.749 601.634 929.135 601.631 927.846 600.833L914.393 592.518C912.561 591.386 911.383 589.445 911.214 587.306L910.354 576.269C910.119 573.268 906.8 571.557 904.267 573.136L885.026 585.078C882.493 586.657 882.547 590.383 885.137 591.923L895.793 598.281C896.905 598.948 897.635 600.101 897.757 601.386L899.343 618.493C899.478 619.996 898.767 621.448 897.49 622.233L886.219 629.222C884.799 630.103 882.949 629.148 882.807 627.469L878.02 569.862C877.88 568.369 878.597 566.932 879.859 566.153Z" fill="white"/>
<path d="M1495.25 77.2486C1495.25 77.2486 1447.68 82.1485 1397.29 104.379C1318.34 139.201 1178.85 292.427 1178.85 292.427C1178.85 292.427 1240.82 210.373 1285.97 171.47C1331.13 132.567 1367.08 111.4 1397.96 99.9588C1456.96 78.0918 1495.25 77.2486 1495.25 77.2486Z" fill="black"/>
<path d="M1285.75 99.7676C1277.86 94.9264 1264.64 121.614 1256.23 159.368C1247.81 197.122 1247.38 231.646 1255.29 236.485C1263.18 241.326 1276.4 214.65 1284.81 176.885C1293.22 139.144 1293.64 104.609 1285.75 99.7676Z" fill="url(#paint22_linear)" stroke="black" stroke-width="1.5" stroke-miterlimit="10"/>
<path d="M1209.84 213.419C1209.82 213.317 1209.81 213.227 1209.8 213.125C1209.78 212.932 1209.77 212.727 1209.76 212.532C1209.72 212.065 1209.69 211.598 1209.66 211.128C1209.65 210.969 1209.64 210.821 1209.62 210.661C1209.62 210.477 1209.61 210.283 1209.6 210.099C1209.57 209.676 1209.56 209.25 1209.54 208.814C1209.53 208.619 1209.52 208.424 1209.5 208.218C1209.5 208.046 1209.5 207.848 1209.5 207.675C1209.48 207.261 1209.47 206.847 1209.47 206.43C1209.46 206.21 1209.45 205.993 1209.45 205.76C1209.45 205.576 1209.45 205.379 1209.45 205.182C1209.44 204.8 1209.45 204.405 1209.44 204.024C1209.44 203.791 1209.44 203.572 1209.43 203.341C1209.43 203.122 1209.44 202.9 1209.44 202.678C1209.45 202.294 1209.45 201.91 1209.46 201.526C1209.47 201.316 1209.47 201.107 1209.46 200.888C1209.47 200.619 1209.48 200.35 1209.49 200.082C1209.5 199.709 1209.5 199.336 1209.52 198.95C1209.52 198.764 1209.53 198.588 1209.53 198.402C1209.55 198.073 1209.57 197.733 1209.57 197.396C1209.58 197.034 1209.6 196.681 1209.61 196.319C1209.62 196.18 1209.62 196.04 1209.63 195.897C1209.65 195.476 1209.68 195.04 1209.71 194.605C1209.73 194.265 1209.74 193.936 1209.77 193.594C1209.77 193.512 1209.78 193.43 1209.78 193.347C1209.83 192.63 1209.88 191.91 1209.94 191.179C1209.95 191.072 1209.95 190.979 1209.96 190.872C1209.96 190.861 1209.95 190.85 1209.96 190.848C1210.03 190.01 1210.09 189.172 1210.17 188.318C1210.18 188.236 1210.19 188.151 1210.2 188.08C1210.22 187.855 1210.25 187.617 1210.26 187.393C1210.31 186.93 1210.34 186.47 1210.39 186.008C1210.42 185.77 1210.44 185.521 1210.47 185.283C1210.49 184.987 1210.53 184.678 1210.56 184.38C1210.59 184.131 1210.61 183.893 1210.64 183.644C1210.7 183.014 1210.78 182.393 1210.84 181.753C1210.84 181.742 1210.85 181.728 1210.85 181.717C1210.85 181.682 1210.85 181.635 1210.87 181.597C1210.93 181.025 1211 180.443 1211.07 179.868C1211.11 179.488 1211.17 179.105 1211.22 178.733C1211.24 178.613 1211.25 178.495 1211.27 178.375C1211.28 178.29 1211.29 178.208 1211.3 178.123C1211.36 177.669 1211.42 177.215 1211.48 176.761C1211.53 176.307 1211.6 175.851 1211.66 175.397C1211.67 175.361 1211.67 175.325 1211.68 175.287C1211.69 175.252 1211.7 175.203 1211.7 175.167C1211.75 174.784 1211.81 174.401 1211.87 174.016C1211.93 173.62 1211.99 173.212 1212.05 172.816C1212.09 172.529 1212.14 172.25 1212.18 171.963C1212.19 171.949 1212.18 171.927 1212.19 171.914C1212.19 171.889 1212.2 171.854 1212.2 171.829C1212.26 171.504 1212.31 171.168 1212.36 170.842C1212.41 170.506 1212.47 170.181 1212.52 169.845C1212.57 169.508 1212.62 169.183 1212.68 168.844C1212.69 168.773 1212.71 168.699 1212.71 168.628C1212.72 168.593 1212.73 168.544 1212.73 168.508C1212.76 168.292 1212.81 168.073 1212.84 167.857C1212.88 167.592 1212.92 167.316 1212.98 167.049C1213.02 166.772 1213.07 166.505 1213.12 166.229C1213.16 165.953 1213.21 165.685 1213.25 165.409C1213.26 165.338 1213.28 165.275 1213.29 165.204C1213.29 165.179 1213.3 165.155 1213.29 165.133C1213.32 164.952 1213.36 164.769 1213.39 164.589C1213.44 164.31 1213.49 164.045 1213.54 163.767C1213.59 163.488 1213.63 163.223 1213.69 162.944C1213.74 162.666 1213.79 162.387 1213.84 162.108C1213.87 161.999 1213.89 161.89 1213.91 161.769C1213.91 161.734 1213.92 161.709 1213.93 161.671C1213.96 161.537 1213.98 161.393 1214.01 161.259C1214.06 160.98 1214.11 160.69 1214.17 160.409C1214.23 160.131 1214.29 159.838 1214.34 159.56C1214.39 159.281 1214.45 158.989 1214.51 158.71C1214.53 158.577 1214.56 158.443 1214.59 158.309C1214.59 158.273 1214.61 158.235 1214.61 158.211C1214.63 158.09 1214.66 157.968 1214.68 157.858C1214.74 157.566 1214.79 157.287 1214.86 156.995C1214.94 156.569 1215.03 156.143 1215.12 155.706C1215.17 155.428 1215.24 155.158 1215.29 154.879C1215.31 154.805 1215.32 154.732 1215.33 154.66C1215.35 154.551 1215.37 154.442 1215.4 154.344C1215.49 153.893 1215.59 153.429 1215.69 152.978C1215.79 152.514 1215.89 152.064 1215.99 151.6C1216.02 151.477 1216.05 151.354 1216.07 151.234C1216.5 149.279 1216.95 147.369 1217.41 145.478C1217.44 145.355 1217.47 145.232 1217.49 145.112C1217.52 144.989 1217.55 144.866 1217.58 144.743C1217.6 144.656 1217.61 144.56 1217.64 144.473C1217.71 144.214 1217.77 143.958 1217.83 143.698C1217.95 143.232 1218.07 142.763 1218.19 142.296C1218.25 142.061 1218.31 141.827 1218.37 141.592C1218.4 141.494 1218.42 141.396 1218.45 141.298C1218.48 141.175 1218.51 141.039 1218.54 140.916C1218.64 140.534 1218.74 140.163 1218.84 139.792C1218.93 139.495 1219 139.2 1219.08 138.903C1219.13 138.717 1219.18 138.543 1219.22 138.36C1219.23 138.325 1219.24 138.297 1219.25 138.262C1219.27 138.175 1219.29 138.101 1219.32 138.014C1219.4 137.717 1219.47 137.422 1219.56 137.136C1219.64 136.838 1219.72 136.555 1219.8 136.257C1219.88 135.96 1219.96 135.677 1220.04 135.39C1220.06 135.352 1220.07 135.303 1220.07 135.268C1220.08 135.243 1220.09 135.23 1220.09 135.205C1220.16 134.981 1220.22 134.747 1220.28 134.523C1220.37 134.237 1220.44 133.953 1220.53 133.667C1220.61 133.381 1220.69 133.097 1220.78 132.822C1220.83 132.648 1220.88 132.473 1220.92 132.301C1220.93 132.266 1220.94 132.239 1220.95 132.203C1220.97 132.129 1220.99 132.053 1221.01 131.969C1221.1 131.682 1221.17 131.41 1221.26 131.135C1221.35 130.859 1221.42 130.576 1221.51 130.3C1221.61 129.976 1221.7 129.665 1221.8 129.341C1221.8 129.33 1221.81 129.328 1221.81 129.317L1221.82 129.303C1221.92 128.954 1222.04 128.603 1222.14 128.254C1222.25 127.905 1222.37 127.554 1222.47 127.216C1222.54 127.014 1222.6 126.804 1222.67 126.603C1222.69 126.54 1222.71 126.489 1222.72 126.428C1222.75 126.352 1222.78 126.265 1222.8 126.191C1222.91 125.829 1223.04 125.464 1223.15 125.102C1223.29 124.677 1223.43 124.26 1223.57 123.846C1223.59 123.808 1223.6 123.759 1223.61 123.721C1223.62 123.696 1223.62 123.672 1223.64 123.645C1223.81 123.165 1223.97 122.689 1224.13 122.212C1224.24 121.896 1224.35 121.58 1224.45 121.267C1224.48 121.18 1224.52 121.09 1224.55 121.014C1224.57 120.951 1224.6 120.875 1224.62 120.812C1224.86 120.143 1225.09 119.487 1225.34 118.828C1225.36 118.765 1225.38 118.714 1225.4 118.651C1225.46 118.474 1225.54 118.295 1225.6 118.118C1225.75 117.712 1225.9 117.296 1226.05 116.901C1226.11 116.749 1226.17 116.607 1226.23 116.455C1226.36 116.112 1226.49 115.769 1226.64 115.435C1226.74 115.179 1226.83 114.915 1226.93 114.659C1227 114.493 1227.07 114.327 1227.13 114.161C1227.28 113.792 1227.43 113.433 1227.58 113.074C1227.67 112.856 1227.76 112.628 1227.85 112.41C1227.91 112.244 1227.98 112.089 1228.06 111.921C1228.22 111.524 1228.39 111.138 1228.56 110.763C1228.65 110.556 1228.73 110.352 1228.82 110.146C1228.89 109.991 1228.96 109.847 1229.02 109.694C1229.18 109.333 1229.34 108.971 1229.51 108.61C1229.6 108.414 1229.69 108.197 1229.77 108.004C1229.84 107.86 1229.91 107.73 1229.97 107.588C1230.12 107.251 1230.29 106.912 1230.45 106.586C1230.54 106.391 1230.63 106.195 1230.72 106.002C1230.79 105.858 1230.85 105.728 1230.93 105.595C1231.08 105.294 1231.23 104.992 1231.38 104.691C1231.47 104.509 1231.56 104.325 1231.65 104.154C1231.72 104.01 1231.8 103.888 1231.87 103.744C1232.01 103.456 1232.17 103.177 1232.32 102.9C1232.41 102.74 1232.49 102.572 1232.58 102.412C1232.66 102.265 1232.73 102.133 1232.81 102C1232.95 101.748 1233.09 101.495 1233.24 101.241C1233.32 101.105 1233.39 100.961 1233.48 100.826C1233.56 100.68 1233.66 100.542 1233.74 100.395C1233.88 100.154 1234.01 99.9264 1234.16 99.6963C1234.23 99.588 1234.3 99.4551 1234.37 99.3468C1234.46 99.1979 1234.56 99.06 1234.65 98.9111C1234.79 98.6944 1234.93 98.4753 1235.07 98.2697C1235.13 98.1749 1235.19 98.0802 1235.25 97.9854C1235.36 97.834 1235.45 97.6961 1235.56 97.5556C1235.7 97.35 1235.84 97.1555 1235.98 96.9609C1236.03 96.8907 1236.08 96.8094 1236.14 96.7282C1236.24 96.5878 1236.35 96.4584 1236.46 96.318C1236.6 96.1344 1236.74 95.9398 1236.89 95.7673C1236.94 95.7106 1236.99 95.6404 1237.03 95.5837C1237.13 95.4569 1237.23 95.341 1237.35 95.2226C1237.5 95.0365 1237.65 94.8505 1237.8 94.6889C1237.85 94.6323 1237.89 94.5756 1237.94 94.5189C1238.04 94.4141 1238.14 94.3228 1238.23 94.2204C1238.39 94.0564 1238.54 93.8949 1238.7 93.7309C1238.75 93.6852 1238.8 93.626 1238.85 93.5804C1238.94 93.5026 1239.01 93.4384 1239.1 93.3606C1239.28 93.1915 1239.45 93.036 1239.63 92.8915C1239.69 92.8433 1239.75 92.7841 1239.8 92.736C1239.87 92.6853 1239.93 92.6481 1240 92.5974C1240.2 92.4479 1240.39 92.3119 1240.59 92.1843C1240.66 92.1337 1240.74 92.0694 1240.81 92.0298C1240.85 91.9976 1240.9 91.9876 1240.95 91.964C1241.2 91.8128 1241.44 91.6888 1241.7 91.5843C1241.76 91.5581 1241.82 91.51 1241.87 91.4974C1241.9 91.4923 1241.92 91.4873 1241.94 91.4712C1241.99 91.4476 1242.05 91.435 1242.1 91.4114C1242.29 91.3441 1242.49 91.2877 1242.67 91.2449C1242.74 91.2298 1242.82 91.2122 1242.88 91.197C1242.94 91.1844 1242.99 91.1719 1243.05 91.1593C1243.17 91.1426 1243.29 91.1394 1243.4 91.1363C1243.48 91.1297 1243.56 91.1231 1243.63 91.119C1243.88 91.1212 1244.11 91.1369 1244.34 91.1883L1284.55 99.3702C1284.32 99.3188 1284.08 99.3031 1283.84 99.3009C1283.75 99.2965 1283.68 99.3141 1283.61 99.3182C1283.44 99.3229 1283.27 99.3386 1283.1 99.3764C1283.03 99.3915 1282.96 99.4091 1282.89 99.4243C1282.7 99.4671 1282.51 99.5234 1282.31 99.5908C1282.26 99.6144 1282.21 99.627 1282.15 99.6506C1282.08 99.6793 1282 99.7325 1281.91 99.7636C1281.67 99.8767 1281.42 100.003 1281.17 100.154C1281.06 100.226 1280.93 100.3 1280.82 100.372C1280.63 100.497 1280.43 100.636 1280.24 100.796C1280.11 100.895 1279.99 100.992 1279.86 101.09C1279.69 101.235 1279.5 101.393 1279.33 101.559C1279.2 101.683 1279.06 101.806 1278.93 101.93C1278.78 102.08 1278.62 102.244 1278.46 102.419C1278.32 102.567 1278.17 102.729 1278.02 102.89C1277.88 103.063 1277.72 103.249 1277.57 103.424C1277.41 103.61 1277.27 103.783 1277.11 103.969C1276.97 104.152 1276.82 104.336 1276.68 104.53C1276.52 104.741 1276.36 104.952 1276.2 105.173C1276.06 105.368 1275.92 105.573 1275.79 105.779C1275.62 106.014 1275.46 106.247 1275.3 106.493C1275.16 106.699 1275.02 106.915 1274.88 107.135C1274.72 107.392 1274.54 107.651 1274.38 107.92C1274.24 108.15 1274.11 108.378 1273.96 108.619C1273.8 108.9 1273.63 109.182 1273.47 109.462C1273.33 109.714 1273.19 109.955 1273.04 110.221C1272.88 110.513 1272.72 110.817 1272.55 111.121C1272.41 111.398 1272.26 111.675 1272.11 111.954C1271.95 112.269 1271.78 112.586 1271.62 112.901C1271.46 113.202 1271.31 113.504 1271.16 113.805C1271 114.131 1270.84 114.459 1270.68 114.796C1270.52 115.122 1270.37 115.459 1270.2 115.798C1270.05 116.135 1269.89 116.472 1269.73 116.822C1269.57 117.184 1269.41 117.545 1269.23 117.909C1269.08 118.257 1268.92 118.619 1268.77 118.978C1268.6 119.364 1268.44 119.75 1268.27 120.136C1268.12 120.519 1267.95 120.905 1267.79 121.289C1267.64 121.648 1267.49 122.006 1267.36 122.374C1267.19 122.796 1267.02 123.217 1266.86 123.647C1266.73 123.99 1266.6 124.333 1266.46 124.678C1266.25 125.225 1266.05 125.77 1265.84 126.328C1265.76 126.518 1265.7 126.695 1265.63 126.885C1265.34 127.658 1265.06 128.429 1264.78 129.224C1264.74 129.314 1264.72 129.401 1264.68 129.502C1264.4 130.308 1264.11 131.116 1263.84 131.944C1263.82 131.982 1263.81 132.031 1263.8 132.069C1263.51 132.925 1263.23 133.788 1262.94 134.665C1262.93 134.715 1262.91 134.766 1262.9 134.826C1262.6 135.728 1262.31 136.641 1262.04 137.562C1262.04 137.573 1262.03 137.576 1262.03 137.587C1261.74 138.524 1261.46 139.481 1261.17 140.44C1261.16 140.465 1261.14 140.503 1261.14 140.527C1260.86 141.484 1260.58 142.452 1260.3 143.433C1260.29 143.458 1260.28 143.472 1260.27 143.496C1259.99 144.489 1259.72 145.478 1259.45 146.49C1259.45 146.526 1259.43 146.553 1259.43 146.589C1259.16 147.565 1258.9 148.552 1258.65 149.537C1258.63 149.635 1258.6 149.734 1258.58 149.832C1258.33 150.781 1258.09 151.752 1257.85 152.724C1257.82 152.811 1257.81 152.907 1257.78 152.994C1257.72 153.24 1257.66 153.485 1257.61 153.717C1257.15 155.608 1256.71 157.519 1256.27 159.473C1256.01 160.623 1255.77 161.769 1255.53 162.913C1255.51 162.987 1255.49 163.061 1255.49 163.132C1255.25 164.241 1255.02 165.36 1254.81 166.464C1254.81 166.499 1254.79 166.537 1254.79 166.562C1254.56 167.693 1254.34 168.821 1254.13 169.935C1254.13 169.971 1254.12 169.995 1254.11 170.034C1253.9 171.159 1253.69 172.274 1253.49 173.386C1253.49 173.41 1253.48 173.435 1253.49 173.457C1253.29 174.569 1253.1 175.679 1252.92 176.775C1252.92 176.81 1252.91 176.835 1252.91 176.87C1252.73 177.977 1252.55 179.073 1252.39 180.167C1252.38 180.18 1252.38 180.202 1252.37 180.216C1252.21 181.285 1252.05 182.354 1251.91 183.418C1251.91 183.464 1251.9 183.502 1251.9 183.549C1251.75 184.591 1251.62 185.619 1251.48 186.647C1251.46 186.768 1251.45 186.885 1251.43 187.006C1251.31 187.985 1251.19 188.951 1251.09 189.903C1251.08 189.938 1251.08 189.963 1251.07 189.998C1250.97 190.904 1250.88 191.782 1250.78 192.674C1250.76 192.97 1250.72 193.268 1250.69 193.553C1250.62 194.264 1250.55 194.976 1250.49 195.674C1250.47 195.898 1250.45 196.137 1250.43 196.361C1250.34 197.308 1250.27 198.242 1250.2 199.162C1250.19 199.268 1250.19 199.362 1250.17 199.457C1250.12 200.271 1250.06 201.084 1250.01 201.884C1249.99 202.223 1249.98 202.552 1249.95 202.883C1249.92 203.458 1249.88 204.023 1249.86 204.584C1249.84 204.949 1249.83 205.31 1249.82 205.661C1249.8 206.187 1249.78 206.702 1249.76 207.218C1249.75 207.59 1249.73 207.966 1249.72 208.338C1249.71 208.829 1249.7 209.306 1249.69 209.783C1249.69 210.167 1249.68 210.551 1249.68 210.934C1249.68 211.387 1249.68 211.839 1249.67 212.281C1249.67 212.676 1249.68 213.057 1249.68 213.438C1249.68 213.855 1249.7 214.269 1249.7 214.675C1249.7 215.092 1249.72 215.517 1249.73 215.921C1249.73 216.302 1249.75 216.681 1249.77 217.06C1249.79 217.496 1249.8 217.921 1249.83 218.344C1249.85 218.687 1249.87 219.042 1249.89 219.385C1249.92 219.865 1249.96 220.321 1249.99 220.788C1250.02 221.085 1250.04 221.392 1250.07 221.686C1250.13 222.346 1250.2 222.967 1250.27 223.588C1250.3 223.745 1250.31 223.915 1250.33 224.075C1250.34 224.176 1250.35 224.278 1250.38 224.388C1250.44 224.872 1250.51 225.332 1250.58 225.791C1250.6 225.948 1250.63 226.104 1250.65 226.261C1250.71 226.619 1250.78 226.963 1250.85 227.307C1250.89 227.541 1250.94 227.773 1250.98 227.996C1251.05 228.315 1251.13 228.635 1251.2 228.943C1251.24 229.142 1251.29 229.351 1251.35 229.547C1251.45 229.952 1251.56 230.344 1251.68 230.722C1251.7 230.788 1251.73 230.863 1251.74 230.929C1251.88 231.373 1252.03 231.779 1252.18 232.174C1252.23 232.291 1252.28 232.396 1252.33 232.512C1252.43 232.788 1252.55 233.051 1252.67 233.292C1252.73 233.417 1252.79 233.541 1252.86 233.666C1252.96 233.885 1253.08 234.09 1253.19 234.285C1253.27 234.407 1253.34 234.518 1253.41 234.629C1253.53 234.81 1253.65 234.979 1253.77 235.149C1253.84 235.249 1253.92 235.347 1254 235.433C1254.14 235.598 1254.28 235.741 1254.43 235.881C1254.5 235.945 1254.57 236.024 1254.64 236.088C1254.86 236.282 1255.08 236.451 1255.31 236.595C1255.51 236.712 1255.71 236.817 1255.91 236.898C1256.12 236.979 1256.33 237.047 1256.54 237.092L1216.33 228.91C1215.91 228.822 1215.5 228.66 1215.09 228.416C1214.86 228.271 1214.64 228.102 1214.42 227.909C1214.35 227.844 1214.29 227.777 1214.21 227.702C1214.06 227.561 1213.93 227.419 1213.79 227.254C1213.71 227.168 1213.64 227.067 1213.56 226.97C1213.44 226.811 1213.31 226.633 1213.2 226.45C1213.12 226.338 1213.05 226.227 1212.98 226.105C1212.86 225.911 1212.75 225.706 1212.64 225.498C1212.58 225.373 1212.52 225.248 1212.45 225.124C1212.34 224.872 1212.22 224.609 1212.11 224.344C1212.06 224.227 1212.01 224.122 1211.96 224.006C1211.82 223.611 1211.66 223.194 1211.53 222.76C1211.5 222.697 1211.49 222.62 1211.47 222.554C1211.37 222.217 1211.27 221.891 1211.17 221.533C1211.16 221.489 1211.15 221.434 1211.13 221.378C1211.08 221.183 1211.03 220.973 1210.98 220.775C1210.91 220.466 1210.83 220.16 1210.77 219.838C1210.72 219.618 1210.68 219.384 1210.63 219.15C1210.6 218.938 1210.55 218.74 1210.52 218.528C1210.5 218.393 1210.47 218.247 1210.44 218.115C1210.42 217.958 1210.39 217.79 1210.37 217.634C1210.3 217.174 1210.23 216.715 1210.16 216.231C1210.15 216.129 1210.13 216.03 1210.12 215.917C1210.11 215.884 1210.1 215.851 1210.1 215.816C1210.09 215.692 1210.08 215.566 1210.07 215.442C1209.97 214.699 1209.9 214.065 1209.84 213.419Z" fill="url(#paint23_linear)" stroke="black" stroke-width="1.5" stroke-miterlimit="10"/>
<path d="M1268.56 171.739L1268.57 171.726C1269.8 171.885 1271.37 169.021 1272.1 165.271C1271.37 169.021 1271.75 172.262 1272.95 172.58L1272.94 172.593C1271.71 172.445 1270.14 175.298 1269.41 179.048C1270.16 175.293 1269.77 172.054 1268.56 171.739Z" fill="white"/>
<path d="M1275.69 137.527L1279.09 138.188C1279.52 138.274 1279.78 139.121 1279.74 140.381L1278.3 188.947C1278.26 190.361 1277.63 191.931 1277.13 191.836L1273.23 191.082C1272.79 190.996 1272.53 190.138 1272.58 188.864L1273.02 175.521C1273.08 173.709 1273.49 171.634 1274.12 169.935L1277.36 161.24C1278.25 158.869 1278.25 155.842 1277.37 155.673L1270.7 154.402C1269.82 154.231 1268.68 157.054 1268.62 159.573L1268.34 169.969C1268.31 171.054 1268.08 172.303 1267.7 173.329L1262.7 186.947C1262.26 188.15 1261.71 188.843 1261.26 188.76L1257.37 188.004C1256.88 187.906 1256.88 186.214 1257.37 184.883L1274.25 139.316C1274.7 138.124 1275.25 137.441 1275.69 137.527Z" fill="white"/>
<path d="M1259.39 146.481L1219.28 137.953" stroke="black" stroke-width="1.5" stroke-miterlimit="10"/>
<path d="M1256.25 159.931L1216.14 151.403" stroke="black" stroke-width="1.5" stroke-miterlimit="10"/>
<path d="M637.295 605.596C637.295 605.596 662.739 581.61 607.713 586.916C561.932 591.325 444.777 582.629 345.066 649.294C345.066 649.294 404.737 615.353 505.485 602.335C573.74 593.52 637.295 605.596 637.295 605.596Z" fill="black"/>
<path d="M651.288 502.837L631.879 508.073C632.927 507.787 634.005 507.53 635.079 507.307L654.487 502.072C653.413 502.294 652.347 502.549 651.288 502.837Z" fill="#208EBA"/>
<path d="M635.076 507.297L654.485 502.061C653.402 502.297 652.336 502.552 651.286 502.827L631.877 508.063C632.938 507.785 634.005 507.53 635.076 507.297Z" fill="#208EBA" stroke="black" stroke-width="1.5" stroke-miterlimit="10"/>
<path d="M651.288 502.837L631.879 508.073C632.927 507.787 634.005 507.53 635.079 507.307L654.487 502.072C653.413 502.294 652.347 502.549 651.288 502.837Z" stroke="black" stroke-width="1.5" stroke-miterlimit="10"/>
<path d="M671.278 653.731L690.687 648.495C725.289 639.161 745.944 601.022 737.106 561.588C727.988 520.93 691.01 494.293 654.487 502.071L635.078 507.307C671.601 499.528 708.579 526.166 717.697 566.823C726.535 606.258 705.88 644.397 671.278 653.731Z" fill="#208EBA"/>
<path d="M671.279 653.732L690.687 648.496C725.289 639.162 745.945 601.023 737.106 561.588C734.011 547.79 727.71 535.593 719.298 525.827L699.889 531.063C708.304 540.84 714.602 553.025 717.698 566.824C726.536 606.259 705.88 644.398 671.279 653.732Z" fill="#208EBA" stroke="black" stroke-width="1.5" stroke-miterlimit="10"/>
<path d="M699.886 531.052L719.295 525.816C713.91 519.556 707.65 514.285 700.828 510.208L681.419 515.444C688.241 519.52 694.502 524.792 699.886 531.052Z" fill="#208EBA" stroke="black" stroke-width="1.5" stroke-miterlimit="10"/>
<path d="M681.419 515.444L700.828 510.208C690.974 504.332 679.942 500.963 668.594 500.727L649.185 505.962C660.533 506.198 671.567 509.579 681.419 515.444Z" fill="#208EBA" stroke="black" stroke-width="1.5" stroke-miterlimit="10"/>
<path d="M649.174 505.965L668.583 500.729C663.923 500.635 659.197 501.065 654.485 502.061L635.076 507.297C639.799 506.298 644.514 505.87 649.174 505.965Z" fill="#208EBA" stroke="black" stroke-width="1.5" stroke-miterlimit="10"/>
<path d="M671.278 653.731L690.687 648.495C725.289 639.161 745.944 601.022 737.106 561.588C727.988 520.93 691.01 494.293 654.487 502.071L635.078 507.307C671.601 499.528 708.579 526.166 717.697 566.823C726.535 606.258 705.88 644.397 671.278 653.731Z" stroke="black" stroke-width="1.5" stroke-miterlimit="10"/>
<path d="M635.076 507.297C598.564 515.073 576.345 554.335 585.452 594.995C594.567 635.641 631.557 662.276 668.068 654.5C704.591 646.721 726.799 607.462 717.695 566.813C708.591 526.164 671.599 499.518 635.076 507.297Z" fill="url(#paint24_linear)" stroke="black" stroke-width="1.5" stroke-miterlimit="10"/>
<path d="M641.738 586.72L641.732 586.705C645.875 586.752 649.307 583.534 649.442 579.418C649.302 583.519 652.515 586.962 656.641 587.187L656.647 587.202C652.515 587.159 649.093 590.382 648.963 594.488C649.093 590.382 645.879 586.94 641.738 586.72Z" fill="white"/>
<path d="M644.503 549.259L656.026 549.632C657.511 549.681 658.85 550.568 659.487 551.924L684.045 604.247C684.757 605.771 683.627 607.521 681.959 607.466L668.708 607.035C667.208 606.991 665.863 606.09 665.235 604.713L658.651 590.334C657.757 588.383 657.844 586.112 658.897 584.228L664.294 574.563C665.761 571.936 663.949 568.678 660.967 568.575L638.339 567.865C635.354 567.771 633.34 570.911 634.636 573.632L639.987 584.836C640.549 585.998 640.514 587.367 639.902 588.505L631.742 603.624C631.021 604.949 629.624 605.766 628.128 605.712L614.877 605.281C613.209 605.225 612.194 603.407 613.004 601.935L640.934 551.33C641.629 550.006 643.018 549.21 644.503 549.259Z" fill="white"/>
</g>
<defs>
<linearGradient id="paint0_linear" x1="1642.65" y1="309.513" x2="-213.805" y2="733.781" gradientUnits="userSpaceOnUse">
<stop stop-color="#8C98FF"/>
<stop offset="0.0966" stop-color="#8C8FFF"/>
<stop offset="0.3074" stop-color="#8C82FF"/>
<stop offset="0.5018" stop-color="#8C7EFF"/>
</linearGradient>
<linearGradient id="paint1_linear" x1="1127.64" y1="301.659" x2="1097.45" y2="308.559" gradientUnits="userSpaceOnUse">
<stop offset="0.1952" stop-color="#9278FF"/>
<stop offset="0.1961" stop-color="#9278FF"/>
<stop offset="0.384" stop-color="#8B92FE"/>
<stop offset="0.577" stop-color="#87A4FD"/>
<stop offset="0.7785" stop-color="#84AFFD"/>
<stop offset="1" stop-color="#83B3FD"/>
</linearGradient>
<linearGradient id="paint2_linear" x1="1127.64" y1="301.659" x2="1097.45" y2="308.559" gradientUnits="userSpaceOnUse">
<stop offset="0.1952" stop-color="#9278FF"/>
<stop offset="0.1961" stop-color="#9278FF"/>
<stop offset="0.384" stop-color="#8B92FE"/>
<stop offset="0.577" stop-color="#87A4FD"/>
<stop offset="0.7785" stop-color="#84AFFD"/>
<stop offset="1" stop-color="#83B3FD"/>
</linearGradient>
<linearGradient id="paint3_linear" x1="1172.24" y1="365.285" x2="1062.52" y2="390.36" gradientUnits="userSpaceOnUse">
<stop stop-color="#8C98FF"/>
<stop offset="0.0966" stop-color="#8C8FFF"/>
<stop offset="0.3074" stop-color="#8C82FF"/>
<stop offset="0.5018" stop-color="#8C7EFF"/>
</linearGradient>
<linearGradient id="paint4_linear" x1="1167.58" y1="423.03" x2="1074.83" y2="444.227" gradientUnits="userSpaceOnUse">
<stop stop-color="#8C98FF"/>
<stop offset="0.0966" stop-color="#8C8FFF"/>
<stop offset="0.3074" stop-color="#8C82FF"/>
<stop offset="0.5018" stop-color="#8C7EFF"/>
</linearGradient>
<linearGradient id="paint5_linear" x1="1170.46" y1="397.389" x2="1132.81" y2="405.994" gradientUnits="userSpaceOnUse">
<stop stop-color="#8C98FF"/>
<stop offset="0.0966" stop-color="#8C8FFF"/>
<stop offset="0.3074" stop-color="#8C82FF"/>
<stop offset="0.5018" stop-color="#8C7EFF"/>
</linearGradient>
<linearGradient id="paint6_linear" x1="1172.41" y1="380.597" x2="1137.57" y2="388.56" gradientUnits="userSpaceOnUse">
<stop stop-color="#8C98FF"/>
<stop offset="0.0966" stop-color="#8C8FFF"/>
<stop offset="0.3074" stop-color="#8C82FF"/>
<stop offset="0.5018" stop-color="#8C7EFF"/>
</linearGradient>
<linearGradient id="paint7_linear" x1="1171.41" y1="362.147" x2="1139.01" y2="369.55" gradientUnits="userSpaceOnUse">
<stop stop-color="#8C98FF"/>
<stop offset="0.0966" stop-color="#8C8FFF"/>
<stop offset="0.3074" stop-color="#8C82FF"/>
<stop offset="0.5018" stop-color="#8C7EFF"/>
</linearGradient>
<linearGradient id="paint8_linear" x1="1164.55" y1="331.633" x2="1125.33" y2="340.596" gradientUnits="userSpaceOnUse">
<stop stop-color="#8C98FF"/>
<stop offset="0.0966" stop-color="#8C8FFF"/>
<stop offset="0.3074" stop-color="#8C82FF"/>
<stop offset="0.5018" stop-color="#8C7EFF"/>
</linearGradient>
<linearGradient id="paint9_linear" x1="1148.7" y1="307.744" x2="1109.1" y2="316.793" gradientUnits="userSpaceOnUse">
<stop stop-color="#8C98FF"/>
<stop offset="0.0966" stop-color="#8C8FFF"/>
<stop offset="0.3074" stop-color="#8C82FF"/>
<stop offset="0.5018" stop-color="#8C7EFF"/>
</linearGradient>
<linearGradient id="paint10_linear" x1="1136.65" y1="302.243" x2="1098.87" y2="310.878" gradientUnits="userSpaceOnUse">
<stop stop-color="#8C98FF"/>
<stop offset="0.0966" stop-color="#8C8FFF"/>
<stop offset="0.3074" stop-color="#8C82FF"/>
<stop offset="0.5018" stop-color="#8C7EFF"/>
</linearGradient>
<linearGradient id="paint11_linear" x1="1119.17" y1="438.104" x2="1053.72" y2="317.479" gradientUnits="userSpaceOnUse">
<stop offset="0.1952" stop-color="#9278FF"/>
<stop offset="0.1961" stop-color="#9278FF"/>
<stop offset="0.384" stop-color="#8B92FE"/>
<stop offset="0.577" stop-color="#87A4FD"/>
<stop offset="0.7785" stop-color="#84AFFD"/>
<stop offset="1" stop-color="#83B3FD"/>
</linearGradient>
<linearGradient id="paint12_linear" x1="898.549" y1="526.899" x2="875.855" y2="512.648" gradientUnits="userSpaceOnUse">
<stop stop-color="#3194C5"/>
<stop offset="0.144" stop-color="#4A9DD6"/>
<stop offset="0.4117" stop-color="#75ADF2"/>
<stop offset="0.5488" stop-color="#85B3FD"/>
</linearGradient>
<linearGradient id="paint13_linear" x1="900.291" y1="524.124" x2="880.574" y2="511.742" gradientUnits="userSpaceOnUse">
<stop stop-color="#3194C5"/>
<stop offset="0.144" stop-color="#4A9DD6"/>
<stop offset="0.4117" stop-color="#75ADF2"/>
<stop offset="0.5488" stop-color="#85B3FD"/>
</linearGradient>
<linearGradient id="paint14_linear" x1="884.724" y1="525.931" x2="872.381" y2="518.181" gradientUnits="userSpaceOnUse">
<stop stop-color="#3194C5"/>
<stop offset="0.144" stop-color="#4A9DD6"/>
<stop offset="0.4117" stop-color="#75ADF2"/>
<stop offset="0.5488" stop-color="#85B3FD"/>
</linearGradient>
<linearGradient id="paint15_linear" x1="992.909" y1="614.523" x2="876.407" y2="541.365" gradientUnits="userSpaceOnUse">
<stop stop-color="#3194C5"/>
<stop offset="0.144" stop-color="#4A9DD6"/>
<stop offset="0.4117" stop-color="#75ADF2"/>
<stop offset="0.5488" stop-color="#85B3FD"/>
</linearGradient>
<linearGradient id="paint16_linear" x1="988.289" y1="621.879" x2="951.598" y2="598.838" gradientUnits="userSpaceOnUse">
<stop stop-color="#3194C5"/>
<stop offset="0.144" stop-color="#4A9DD6"/>
<stop offset="0.4117" stop-color="#75ADF2"/>
<stop offset="0.5488" stop-color="#85B3FD"/>
</linearGradient>
<linearGradient id="paint17_linear" x1="982.793" y1="569.956" x2="964.586" y2="558.523" gradientUnits="userSpaceOnUse">
<stop offset="0.3436" stop-color="#85B3FD"/>
<stop offset="0.5488" stop-color="#85B3FD"/>
</linearGradient>
<linearGradient id="paint18_linear" x1="977.658" y1="558.503" x2="952.543" y2="542.733" gradientUnits="userSpaceOnUse">
<stop offset="0.3436" stop-color="#85B3FD"/>
<stop offset="0.5488" stop-color="#85B3FD"/>
</linearGradient>
<linearGradient id="paint19_linear" x1="964.471" y1="544.536" x2="947.041" y2="533.59" gradientUnits="userSpaceOnUse">
<stop offset="0.3436" stop-color="#85B3FD"/>
<stop offset="0.5488" stop-color="#85B3FD"/>
</linearGradient>
<linearGradient id="paint20_linear" x1="954.292" y1="542.84" x2="897.768" y2="507.345" gradientUnits="userSpaceOnUse">
<stop stop-color="#3194C5"/>
<stop offset="0.144" stop-color="#4A9DD6"/>
<stop offset="0.4117" stop-color="#75ADF2"/>
<stop offset="0.5488" stop-color="#85B3FD"/>
</linearGradient>
<linearGradient id="paint21_linear" x1="968.257" y1="632.982" x2="844.351" y2="555.175" gradientUnits="userSpaceOnUse">
<stop stop-color="#3194C5"/>
<stop offset="0.144" stop-color="#4A9DD6"/>
<stop offset="0.4117" stop-color="#75ADF2"/>
<stop offset="0.5488" stop-color="#85B3FD"/>
</linearGradient>
<linearGradient id="paint22_linear" x1="1295.42" y1="165.991" x2="1245.62" y2="170.277" gradientUnits="userSpaceOnUse">
<stop stop-color="#5643F2"/>
<stop offset="0.00622161" stop-color="#5744F2"/>
<stop offset="0.1832" stop-color="#715BF8"/>
<stop offset="0.3657" stop-color="#836BFC"/>
<stop offset="0.5555" stop-color="#8E75FE"/>
<stop offset="0.7643" stop-color="#9278FF"/>
<stop offset="0.7681" stop-color="#9278FF"/>
<stop offset="0.9024" stop-color="#9278FF"/>
</linearGradient>
<linearGradient id="paint23_linear" x1="1289.8" y1="160.581" x2="1205.91" y2="167.799" gradientUnits="userSpaceOnUse">
<stop stop-color="#5643F2"/>
<stop offset="0.00622161" stop-color="#5744F2"/>
<stop offset="0.1832" stop-color="#715BF8"/>
<stop offset="0.3657" stop-color="#836BFC"/>
<stop offset="0.5555" stop-color="#8E75FE"/>
<stop offset="0.7643" stop-color="#9278FF"/>
<stop offset="0.7681" stop-color="#9278FF"/>
<stop offset="0.9024" stop-color="#9278FF"/>
</linearGradient>
<linearGradient id="paint24_linear" x1="717.475" y1="565.84" x2="585.682" y2="595.96" gradientUnits="userSpaceOnUse">
<stop stop-color="#2580C3"/>
<stop offset="0.2384" stop-color="#2882C5"/>
<stop offset="0.437" stop-color="#3387CB"/>
<stop offset="0.6212" stop-color="#4491D6"/>
<stop offset="0.7968" stop-color="#5C9EE5"/>
<stop offset="0.9647" stop-color="#7BAFF8"/>
<stop offset="1" stop-color="#83B3FD"/>
</linearGradient>
<clipPath id="clip0">
<rect width="1970.62" height="736.104" fill="white" transform="matrix(-0.974866 0.222793 0.222793 0.974866 1639.09 0)"/>
</clipPath>
</defs>
</svg>
